<svg width="12" height="12" viewBox="0 0 12 12" fill="none" xmlns="http://www.w3.org/2000/svg">
<path d="M4.05544 8.17787C4.19836 8.27879 4.36869 8.33246 4.54311 8.33187V8.32954C4.70778 8.32989 4.86892 8.28187 5.00653 8.19144C5.14415 8.10102 5.25217 7.97216 5.31719 7.82087L5.67478 6.73354C5.75732 6.48719 5.89606 6.26344 6.08002 6.07998C6.26399 5.89653 6.48812 5.7584 6.73469 5.67654L7.77186 5.33937C7.93922 5.28097 8.08385 5.17118 8.18511 5.02569C8.28637 4.8802 8.33908 4.70644 8.33572 4.52922C8.33235 4.35199 8.27309 4.18035 8.16638 4.03881C8.05968 3.89727 7.91098 3.79305 7.74153 3.74104L6.71778 3.40854C6.47013 3.32614 6.24512 3.18711 6.06061 3.00251C5.87611 2.8179 5.73721 2.59281 5.65494 2.34512L5.31778 1.30854C5.25897 1.14344 5.15021 1.00076 5.00659 0.900316C4.86297 0.799875 4.69163 0.746663 4.51638 0.748074C4.34113 0.749485 4.17067 0.80545 4.02868 0.908191C3.8867 1.01093 3.78024 1.15535 3.72411 1.32137L3.38403 2.36671C3.30202 2.60719 3.16648 2.82592 2.98762 3.00639C2.80876 3.18687 2.59127 3.32437 2.35153 3.40854L1.31494 3.74104C1.14857 3.79861 1.00442 3.90685 0.902739 4.05057C0.801061 4.19429 0.746969 4.36626 0.748063 4.5423C0.749157 4.71835 0.805383 4.88963 0.90884 5.03207C1.0123 5.17451 1.15778 5.28096 1.32486 5.33646L2.34803 5.66837C2.59564 5.75136 2.82056 5.89079 3.00502 6.07565C3.18948 6.26051 3.32842 6.48574 3.41086 6.73354L3.74803 7.76896C3.80578 7.93404 3.91311 8.07696 4.05544 8.17787ZM3.83728 5.69812C3.77223 5.61312 3.70148 5.53263 3.62553 5.45721H3.62728C3.3456 5.17531 3.00205 4.96299 2.62394 4.83712L1.69061 4.54079L2.63036 4.23512C3.00225 4.10636 3.33956 3.8938 3.61619 3.61387C3.89163 3.33217 4.09929 2.99145 4.22344 2.61754L4.52386 1.69471L4.82486 2.62046C4.9505 2.99785 5.16262 3.34065 5.44428 3.6215C5.72594 3.90236 6.06936 4.11348 6.44711 4.23804L7.39211 4.54254L6.46461 4.84296C6.08757 4.96833 5.74498 5.17994 5.46407 5.46095C5.18317 5.74196 4.97168 6.08462 4.84644 6.46171L4.54603 7.38454L4.24561 6.45996C4.15389 6.18461 4.01579 5.92695 3.83728 5.69812ZM8.52786 11.1214C8.41662 11.042 8.333 10.9298 8.28869 10.8005L8.09736 10.2137C8.06059 10.1018 7.99811 10.0001 7.91494 9.91676C7.83178 9.83339 7.73023 9.77067 7.61844 9.73362L7.04036 9.54521C6.90803 9.50056 6.79296 9.41566 6.71127 9.30238C6.62958 9.1891 6.58535 9.05312 6.58478 8.91346C6.58478 8.77468 6.62813 8.63938 6.70876 8.52643C6.78939 8.41348 6.90328 8.32854 7.03453 8.28346L7.62136 8.09329C7.73051 8.0545 7.82933 7.99122 7.91022 7.9083C7.99112 7.82538 8.05194 7.72503 8.08803 7.61496L8.27703 7.03687C8.32149 6.90607 8.40549 6.7923 8.51741 6.71131C8.62934 6.63032 8.76366 6.58609 8.90181 6.58474C9.03996 6.5834 9.17511 6.625 9.28859 6.7038C9.40207 6.7826 9.48827 6.89471 9.53528 7.02462L9.72719 7.61612C9.76473 7.72703 9.82745 7.82772 9.91045 7.91031C9.99344 7.9929 10.0944 8.05513 10.2055 8.09212L10.7842 8.28054C10.9176 8.32226 11.0345 8.40491 11.1183 8.51678C11.202 8.62864 11.2485 8.76405 11.251 8.90379C11.2535 9.04354 11.212 9.18053 11.1323 9.29534C11.0526 9.41015 10.9387 9.49696 10.8069 9.54346L10.2154 9.73537C10.1042 9.77291 10.0032 9.83576 9.92043 9.91897C9.83763 10.0022 9.77527 10.1035 9.73828 10.2149L9.55044 10.7918C9.50494 10.926 9.41861 11.0426 9.30253 11.1243C9.18928 11.2048 9.05367 11.2478 8.91472 11.2473C8.77578 11.2468 8.64049 11.2027 8.52786 11.1214ZM7.92703 8.91462C8.15616 8.99633 8.36407 9.12834 8.53548 9.30096C8.70689 9.47358 8.83744 9.68242 8.91753 9.91212C8.99855 9.68342 9.12963 9.4757 9.3012 9.30413C9.47277 9.13256 9.68049 9.00148 9.90919 8.92046C9.67847 8.83954 9.46875 8.70808 9.29536 8.5357C9.12197 8.36332 8.98929 8.15437 8.90703 7.92412C8.82649 8.15134 8.69679 8.35798 8.52719 8.5293C8.35758 8.70062 8.15226 8.83239 7.92586 8.91521" fill="#101828"/>
</svg>
