<svg width="304" height="160" viewBox="0 0 304 160" fill="none" xmlns="http://www.w3.org/2000/svg">
<g clip-path="url(#clip0_2834_3578)">
<rect width="304" height="160" fill="white"/>
<mask id="mask0_2834_3578" style="mask-type:alpha" maskUnits="userSpaceOnUse" x="0" y="0" width="304" height="160">
<rect width="304" height="160" fill="url(#paint0_radial_2834_3578)"/>
</mask>
<g mask="url(#mask0_2834_3578)">
<g filter="url(#filter0_d_2834_3578)">
<circle opacity="0.8" cx="152.5" cy="80.4997" r="61.8929" stroke="#F2F4F7" stroke-width="1.21359"/>
<circle opacity="0.8" cx="152.501" cy="80.5012" r="93.8734" stroke="#F2F4F7" stroke-width="1.25165"/>
<circle opacity="0.8" cx="152.5" cy="80.5" r="124.911" stroke="#F2F4F7" stroke-width="1.1784"/>
<g filter="url(#filter1_d_2834_3578)">
<circle cx="152.298" cy="80.2981" r="37.7089" fill="white" stroke="#EAECF0" stroke-width="1.1784"/>
<path d="M167.64 66.3309C168.392 67.0543 168.884 68.009 169 69.0506C169 69.4846 168.884 69.774 168.624 70.3237C168.363 70.8734 165.152 76.4286 164.197 77.962C163.647 78.859 163.358 79.9295 163.358 80.9711C163.358 82.0416 163.647 83.0832 164.197 83.9801C165.152 85.5136 168.363 91.0976 168.624 91.6474C168.884 92.1971 169 92.4575 169 92.8915C168.884 93.9331 168.421 94.8879 167.669 95.5823C166.946 96.3345 165.991 96.8264 164.978 96.9132C164.544 96.9132 164.255 96.7975 163.734 96.5371C163.213 96.2767 157.543 93.1519 156.009 92.1971C155.893 92.1392 155.778 92.0524 155.633 91.9946L148.052 87.5099C148.226 88.9566 148.863 90.3454 149.904 91.358C150.107 91.5606 150.309 91.7342 150.541 91.9078C150.367 91.9946 150.165 92.0814 149.991 92.1971C148.457 93.1519 142.873 96.3635 142.324 96.6239C141.774 96.8843 141.514 97 141.051 97C140.009 96.8843 139.054 96.4213 138.36 95.6691C137.608 94.9457 137.116 93.991 137 92.9494C137.029 92.5154 137.145 92.0814 137.376 91.7052C137.637 91.1555 140.848 85.5714 141.803 84.038C142.353 83.1411 142.642 82.0994 142.642 81.0289C142.642 79.9584 142.353 78.9168 141.803 78.0199C140.848 76.4286 137.608 70.8445 137.376 70.2948C137.145 69.9186 137.029 69.4846 137 69.0506C137.116 68.009 137.579 67.0543 138.331 66.3309C139.054 65.5787 140.009 65.1157 141.051 65C141.485 65.0289 141.919 65.1447 142.324 65.3761C142.787 65.5787 146.866 67.9512 149.036 69.2242L149.528 69.5136C149.702 69.6293 149.846 69.7161 149.962 69.774L150.193 69.9186L157.919 74.4901C157.745 72.7541 156.848 71.1627 155.459 70.0922C155.633 70.0054 155.835 69.9186 156.009 69.8029C157.543 68.8481 163.127 65.6076 163.676 65.3761C164.052 65.1447 164.486 65.0289 164.949 65C165.962 65.1157 166.917 65.5787 167.64 66.3309ZM153.405 83.0543L155.054 81.4051C155.286 81.1736 155.286 80.8264 155.054 80.595L153.405 78.9457C153.174 78.7143 152.826 78.7143 152.595 78.9457L150.946 80.595C150.714 80.8264 150.714 81.1736 150.946 81.4051L152.595 83.0543C152.797 83.2568 153.174 83.2568 153.405 83.0543Z" fill="#F54C3D"/>
</g>
<rect x="19.2334" y="18.2334" width="102.208" height="18.1357" rx="9.06784" fill="white"/>
<rect x="19.2334" y="18.2334" width="102.208" height="18.1357" rx="9.06784" stroke="#EAECF0" stroke-width="0.46688"/>
<path d="M32.1079 30.0556H32.0725C31.7768 30.6234 31.3066 30.9072 30.662 30.9072C30.1002 30.9072 29.6596 30.6973 29.3403 30.2774C29.0269 29.8575 28.8701 29.2691 28.8701 28.5121C28.8701 27.7552 29.0269 27.1667 29.3403 26.7469C29.6596 26.327 30.1002 26.117 30.662 26.117C31.3066 26.117 31.7768 26.4009 32.0725 26.9686H32.1079V24.2364H32.8176V30.8008H32.1079V30.0556ZM30.937 30.2774C31.0967 30.2774 31.2475 30.2567 31.3894 30.2153C31.5314 30.1739 31.6555 30.1148 31.762 30.0379C31.8684 29.9551 31.9512 29.8575 32.0104 29.7452C32.0754 29.6269 32.1079 29.4909 32.1079 29.3371V27.6872C32.1079 27.5334 32.0754 27.4003 32.0104 27.288C31.9512 27.1697 31.8684 27.0721 31.762 26.9952C31.6555 26.9124 31.5314 26.8504 31.3894 26.809C31.2475 26.7676 31.0967 26.7469 30.937 26.7469C30.523 26.7469 30.2007 26.874 29.9701 27.1283C29.7454 27.3767 29.633 27.7079 29.633 28.1218V28.9024C29.633 29.3164 29.7454 29.6505 29.9701 29.9048C30.2007 30.1532 30.523 30.2774 30.937 30.2774ZM34.4109 24.2364H35.1205V26.9686H35.156C35.4517 26.4009 35.9219 26.117 36.5665 26.117C37.1283 26.117 37.5659 26.327 37.8793 26.7469C38.1987 27.1667 38.3583 27.7552 38.3583 28.5121C38.3583 29.2691 38.1987 29.8575 37.8793 30.2774C37.5659 30.6973 37.1283 30.9072 36.5665 30.9072C35.9219 30.9072 35.4517 30.6234 35.156 30.0556H35.1205V30.8008H34.4109V24.2364ZM36.2915 30.2774C36.7054 30.2774 37.0248 30.1532 37.2495 29.9048C37.4801 29.6505 37.5955 29.3164 37.5955 28.9024V28.1218C37.5955 27.7079 37.4801 27.3767 37.2495 27.1283C37.0248 26.874 36.7054 26.7469 36.2915 26.7469C36.1318 26.7469 35.981 26.7676 35.8391 26.809C35.6971 26.8504 35.5729 26.9124 35.4665 26.9952C35.36 27.0721 35.2743 27.1697 35.2092 27.288C35.1501 27.4003 35.1205 27.5334 35.1205 27.6872V29.3371C35.1205 29.4909 35.1501 29.6269 35.2092 29.7452C35.2743 29.8575 35.36 29.9551 35.4665 30.0379C35.5729 30.1148 35.6971 30.1739 35.8391 30.2153C35.981 30.2567 36.1318 30.2774 36.2915 30.2774ZM41.6814 30.8008C41.3325 30.8008 41.0752 30.7032 40.9097 30.508C40.75 30.3129 40.6701 30.0616 40.6701 29.754V26.8267H39.1444V26.2235H40.2798C40.4336 26.2235 40.54 26.1939 40.5992 26.1348C40.6642 26.0697 40.6968 25.9603 40.6968 25.8066V24.609H41.3798V26.2235H43.4644V26.8267H41.3798V30.1976H43.4644V30.8008H41.6814ZM46.6899 30.8806C46.4474 30.8806 46.2759 30.8304 46.1754 30.7298C46.0808 30.6293 46.0335 30.5021 46.0335 30.3484V30.1887C46.0335 30.0349 46.0808 29.9078 46.1754 29.8073C46.2759 29.7067 46.4474 29.6565 46.6899 29.6565C46.9324 29.6565 47.1009 29.7067 47.1955 29.8073C47.2961 29.9078 47.3463 30.0349 47.3463 30.1887V30.3484C47.3463 30.5021 47.2961 30.6293 47.1955 30.7298C47.1009 30.8304 46.9324 30.8806 46.6899 30.8806ZM49.738 30.8008V26.2235H50.3944V26.7557H50.4299C50.5008 26.5783 50.6014 26.4275 50.7315 26.3033C50.8616 26.1791 51.0538 26.117 51.3081 26.117C51.5742 26.117 51.7723 26.185 51.9024 26.3211C52.0325 26.4512 52.1124 26.6227 52.1419 26.8356H52.1685C52.2513 26.6286 52.3696 26.4571 52.5234 26.3211C52.6771 26.185 52.89 26.117 53.1621 26.117C53.5346 26.117 53.783 26.2471 53.9072 26.5073C54.0373 26.7676 54.1024 27.1401 54.1024 27.6251V30.8008H53.4459V27.7404C53.4459 27.3501 53.4045 27.081 53.3217 26.9331C53.2449 26.7794 53.1 26.7025 52.8871 26.7025C52.6978 26.7025 52.5441 26.7646 52.4258 26.8888C52.3075 27.0071 52.2484 27.1904 52.2484 27.4388V30.8008H51.5919V27.7404C51.5919 27.3501 51.5505 27.081 51.4678 26.9331C51.3909 26.7794 51.2489 26.7025 51.042 26.7025C50.8527 26.7025 50.696 26.7646 50.5718 26.8888C50.4535 27.0071 50.3944 27.1904 50.3944 27.4388V30.8008H49.738ZM57.1504 30.9072C56.8311 30.9072 56.5413 30.851 56.2811 30.7387C56.0268 30.6263 55.808 30.4667 55.6247 30.2597C55.4472 30.0468 55.3112 29.7954 55.2166 29.5057C55.122 29.21 55.0747 28.8788 55.0747 28.5121C55.0747 28.1514 55.122 27.8232 55.2166 27.5275C55.3112 27.2318 55.4472 26.9805 55.6247 26.7735C55.808 26.5606 56.0268 26.3979 56.2811 26.2856C56.5413 26.1732 56.8311 26.117 57.1504 26.117C57.4698 26.117 57.7566 26.1732 58.0109 26.2856C58.2711 26.3979 58.4899 26.5606 58.6673 26.7735C58.8506 26.9805 58.9896 27.2318 59.0842 27.5275C59.1789 27.8232 59.2262 28.1514 59.2262 28.5121C59.2262 28.8788 59.1789 29.21 59.0842 29.5057C58.9896 29.7954 58.8506 30.0468 58.6673 30.2597C58.4899 30.4667 58.2711 30.6263 58.0109 30.7387C57.7566 30.851 57.4698 30.9072 57.1504 30.9072ZM57.1504 30.2951C57.5467 30.2951 57.866 30.1769 58.1085 29.9403C58.3509 29.7038 58.4722 29.3371 58.4722 28.8404V28.1839C58.4722 27.6872 58.3509 27.3205 58.1085 27.0839C57.866 26.8474 57.5467 26.7291 57.1504 26.7291C56.7542 26.7291 56.4349 26.8474 56.1924 27.0839C55.9499 27.3205 55.8287 27.6872 55.8287 28.1839V28.8404C55.8287 29.3371 55.9499 29.7038 56.1924 29.9403C56.4349 30.1769 56.7542 30.2951 57.1504 30.2951ZM63.4895 30.0556H63.454C63.1584 30.6234 62.6882 30.9072 62.0436 30.9072C61.4818 30.9072 61.0412 30.6973 60.7219 30.2774C60.4084 29.8575 60.2517 29.2691 60.2517 28.5121C60.2517 27.7552 60.4084 27.1667 60.7219 26.7469C61.0412 26.327 61.4818 26.117 62.0436 26.117C62.6882 26.117 63.1584 26.4009 63.454 26.9686H63.4895V24.2364H64.1992V30.8008H63.4895V30.0556ZM62.3186 30.2774C62.4783 30.2774 62.6291 30.2567 62.771 30.2153C62.9129 30.1739 63.0371 30.1148 63.1436 30.0379C63.25 29.9551 63.3328 29.8575 63.392 29.7452C63.457 29.6269 63.4895 29.4909 63.4895 29.3371V27.6872C63.4895 27.5334 63.457 27.4003 63.392 27.288C63.3328 27.1697 63.25 27.0721 63.1436 26.9952C63.0371 26.9124 62.9129 26.8504 62.771 26.809C62.6291 26.7676 62.4783 26.7469 62.3186 26.7469C61.9046 26.7469 61.5823 26.874 61.3517 27.1283C61.127 27.3767 61.0146 27.7079 61.0146 28.1218V28.9024C61.0146 29.3164 61.127 29.6505 61.3517 29.9048C61.5823 30.1532 61.9046 30.2774 62.3186 30.2774ZM67.6908 30.9072C67.3596 30.9072 67.061 30.851 66.7948 30.7387C66.5346 30.6263 66.3099 30.4667 66.1207 30.2597C65.9373 30.0468 65.7954 29.7954 65.6949 29.5057C65.5943 29.21 65.5441 28.8817 65.5441 28.521C65.5441 28.1543 65.5943 27.8232 65.6949 27.5275C65.8013 27.2318 65.9462 26.9805 66.1295 26.7735C66.3129 26.5606 66.5317 26.3979 66.786 26.2856C67.0462 26.1732 67.333 26.117 67.6464 26.117C67.954 26.117 68.2319 26.1732 68.4803 26.2856C68.7346 26.3979 68.9504 26.5547 69.1278 26.7557C69.3053 26.9509 69.4413 27.1845 69.5359 27.4565C69.6305 27.7286 69.6778 28.0272 69.6778 28.3525V28.6895H66.2892V28.9024C66.2892 29.1035 66.3217 29.2898 66.3868 29.4613C66.4518 29.6328 66.5435 29.7806 66.6618 29.9048C66.786 30.029 66.9338 30.1266 67.1053 30.1976C67.2827 30.2626 67.4779 30.2951 67.6908 30.2951C67.9983 30.2951 68.2644 30.2242 68.4892 30.0823C68.7139 29.9403 68.8854 29.7452 69.0037 29.4968L69.527 29.8516C69.391 30.1591 69.1633 30.4134 68.844 30.6145C68.5306 30.8097 68.1462 30.9072 67.6908 30.9072ZM67.6464 26.7025C67.4513 26.7025 67.2709 26.738 67.1053 26.809C66.9397 26.8799 66.7948 26.9775 66.6707 27.1017C66.5524 27.2259 66.4578 27.3737 66.3868 27.5452C66.3217 27.7108 66.2892 27.8941 66.2892 28.0952V28.1573H68.9149V28.0597C68.9149 27.8587 68.8824 27.6753 68.8174 27.5097C68.7582 27.3442 68.6725 27.2022 68.5601 27.0839C68.4537 26.9598 68.3206 26.8651 68.1609 26.8001C68.0072 26.735 67.8357 26.7025 67.6464 26.7025ZM70.8897 30.1976H72.4864V24.8397H70.8897V24.2364H73.196V30.1976H74.7928V30.8008H70.8897V30.1976ZM78.0715 30.8806C77.829 30.8806 77.6575 30.8304 77.557 30.7298C77.4624 30.6293 77.415 30.5021 77.415 30.3484V30.1887C77.415 30.0349 77.4624 29.9078 77.557 29.8073C77.6575 29.7067 77.829 29.6565 78.0715 29.6565C78.3139 29.6565 78.4825 29.7067 78.5771 29.8073C78.6776 29.9078 78.7279 30.0349 78.7279 30.1887V30.3484C78.7279 30.5021 78.6776 30.6293 78.5771 30.7298C78.4825 30.8304 78.3139 30.8806 78.0715 30.8806ZM81.5099 30.8008V26.2235H82.2195V26.9686H82.255C82.3023 26.8563 82.3614 26.7498 82.4324 26.6493C82.5034 26.5428 82.5891 26.4512 82.6897 26.3743C82.7961 26.2974 82.9203 26.2353 83.0622 26.188C83.2042 26.1407 83.3698 26.117 83.559 26.117C84.038 26.117 84.4224 26.2708 84.7122 26.5783C85.002 26.8799 85.1469 27.3087 85.1469 27.8646V30.8008H84.4372V27.9888C84.4372 27.5689 84.3455 27.2584 84.1622 27.0573C83.9789 26.8504 83.7098 26.7469 83.355 26.7469C83.213 26.7469 83.0741 26.7646 82.938 26.8001C82.802 26.8356 82.6808 26.8888 82.5743 26.9598C82.4679 27.0307 82.3821 27.1224 82.3171 27.2347C82.252 27.3471 82.2195 27.4772 82.2195 27.6251V30.8008H81.5099ZM90.2618 30.8008C89.9838 30.8008 89.7857 30.7298 89.6675 30.5879C89.5492 30.446 89.4753 30.2685 89.4457 30.0556H89.4013C89.3008 30.3218 89.1382 30.5317 88.9134 30.6855C88.6946 30.8333 88.3989 30.9072 88.0264 30.9072C87.5474 30.9072 87.1659 30.783 86.8821 30.5347C86.5982 30.2863 86.4563 29.9462 86.4563 29.5145C86.4563 29.0887 86.61 28.7605 86.9175 28.5299C87.231 28.2992 87.7336 28.1839 88.4256 28.1839H89.4013V27.7315C89.4013 27.3944 89.3067 27.1431 89.1175 26.9775C88.9282 26.806 88.6592 26.7202 88.3102 26.7202C88.0027 26.7202 87.7514 26.7823 87.5562 26.9065C87.3611 27.0248 87.2044 27.1874 87.0861 27.3944L86.6071 27.0396C86.6662 26.9213 86.746 26.806 86.8466 26.6936C86.9471 26.5813 87.0713 26.4837 87.2191 26.4009C87.367 26.3122 87.5355 26.2442 87.7248 26.1969C87.914 26.1436 88.124 26.117 88.3546 26.117C88.8927 26.117 89.3185 26.2531 89.632 26.5251C89.9513 26.7971 90.111 27.1756 90.111 27.6605V30.1798H90.7497V30.8008H90.2618ZM88.1506 30.3129C88.3339 30.3129 88.4995 30.2922 88.6473 30.2508C88.8011 30.2035 88.9341 30.1443 89.0465 30.0734C89.1589 29.9965 89.2446 29.9078 89.3038 29.8073C89.3688 29.7008 89.4013 29.5884 89.4013 29.4702V28.7162H88.4256C87.9998 28.7162 87.6893 28.7753 87.4941 28.8936C87.299 29.0119 87.2014 29.1834 87.2014 29.4081V29.5944C87.2014 29.8309 87.2842 30.0113 87.4498 30.1355C87.6213 30.2538 87.8549 30.3129 88.1506 30.3129ZM91.5801 30.8008V26.2235H92.2365V26.7557H92.272C92.343 26.5783 92.4435 26.4275 92.5736 26.3033C92.7037 26.1791 92.8959 26.117 93.1502 26.117C93.4163 26.117 93.6144 26.185 93.7445 26.3211C93.8746 26.4512 93.9545 26.6227 93.984 26.8356H94.0106C94.0934 26.6286 94.2117 26.4571 94.3655 26.3211C94.5192 26.185 94.7321 26.117 95.0042 26.117C95.3767 26.117 95.6251 26.2471 95.7493 26.5073C95.8794 26.7676 95.9445 27.1401 95.9445 27.6251V30.8008H95.288V27.7404C95.288 27.3501 95.2466 27.081 95.1638 26.9331C95.087 26.7794 94.9421 26.7025 94.7292 26.7025C94.5399 26.7025 94.3862 26.7646 94.2679 26.8888C94.1496 27.0071 94.0905 27.1904 94.0905 27.4388V30.8008H93.4341V27.7404C93.4341 27.3501 93.3927 27.081 93.3099 26.9331C93.233 26.7794 93.0911 26.7025 92.8841 26.7025C92.6948 26.7025 92.5381 26.7646 92.4139 26.8888C92.2956 27.0071 92.2365 27.1904 92.2365 27.4388V30.8008H91.5801ZM99.0724 30.9072C98.7412 30.9072 98.4425 30.851 98.1764 30.7387C97.9162 30.6263 97.6915 30.4667 97.5022 30.2597C97.3189 30.0468 97.177 29.7954 97.0765 29.5057C96.9759 29.21 96.9257 28.8817 96.9257 28.521C96.9257 28.1543 96.9759 27.8232 97.0765 27.5275C97.1829 27.2318 97.3278 26.9805 97.5111 26.7735C97.6944 26.5606 97.9133 26.3979 98.1676 26.2856C98.4278 26.1732 98.7146 26.117 99.028 26.117C99.3355 26.117 99.6135 26.1732 99.8619 26.2856C100.116 26.3979 100.332 26.5547 100.509 26.7557C100.687 26.9509 100.823 27.1845 100.917 27.4565C101.012 27.7286 101.059 28.0272 101.059 28.3525V28.6895H97.6708V28.9024C97.6708 29.1035 97.7033 29.2898 97.7684 29.4613C97.8334 29.6328 97.9251 29.7806 98.0434 29.9048C98.1676 30.029 98.3154 30.1266 98.4869 30.1976C98.6643 30.2626 98.8595 30.2951 99.0724 30.2951C99.3799 30.2951 99.646 30.2242 99.8707 30.0823C100.095 29.9403 100.267 29.7452 100.385 29.4968L100.909 29.8516C100.773 30.1591 100.545 30.4134 100.226 30.6145C99.9121 30.8097 99.5277 30.9072 99.0724 30.9072ZM99.028 26.7025C98.8329 26.7025 98.6525 26.738 98.4869 26.809C98.3213 26.8799 98.1764 26.9775 98.0522 27.1017C97.934 27.2259 97.8393 27.3737 97.7684 27.5452C97.7033 27.7108 97.6708 27.8941 97.6708 28.0952V28.1573H100.297V28.0597C100.297 27.8587 100.264 27.6753 100.199 27.5097C100.14 27.3442 100.054 27.2022 99.9417 27.0839C99.8353 26.9598 99.7022 26.8651 99.5425 26.8001C99.3888 26.735 99.2173 26.7025 99.028 26.7025ZM104.223 30.8806C103.98 30.8806 103.809 30.8304 103.708 30.7298C103.614 30.6293 103.566 30.5021 103.566 30.3484V30.1887C103.566 30.0349 103.614 29.9078 103.708 29.8073C103.809 29.7067 103.98 29.6565 104.223 29.6565C104.465 29.6565 104.634 29.7067 104.728 29.8073C104.829 29.9078 104.879 30.0349 104.879 30.1887V30.3484C104.879 30.5021 104.829 30.6293 104.728 30.7298C104.634 30.8304 104.465 30.8806 104.223 30.8806ZM107.546 30.8008V30.1532H109.32V25.159H109.258L107.697 26.6138L107.262 26.1436L108.903 24.609H110.065V30.1532H111.697V30.8008H107.546Z" fill="#667085"/>
<rect x="191.221" y="42.2212" width="97.25" height="16.8654" rx="8.43269" fill="white"/>
<rect x="191.221" y="42.2212" width="97.25" height="16.8654" rx="8.43269" stroke="#EAECF0" stroke-width="0.442308"/>
<path d="M203.417 52.9484H203.384C203.104 53.4862 202.658 53.7551 202.048 53.7551C201.515 53.7551 201.098 53.5563 200.795 53.1585C200.498 52.7607 200.35 52.2032 200.35 51.4861C200.35 50.769 200.498 50.2115 200.795 49.8137C201.098 49.416 201.515 49.2171 202.048 49.2171C202.658 49.2171 203.104 49.486 203.384 50.0238H203.417V47.4355H204.09V53.6543H203.417V52.9484ZM202.308 53.1585C202.459 53.1585 202.602 53.1389 202.737 53.0996C202.871 53.0604 202.989 53.0044 203.09 52.9316C203.19 52.8531 203.269 52.7607 203.325 52.6542C203.387 52.5422 203.417 52.4133 203.417 52.2677V50.7045C203.417 50.5589 203.387 50.4328 203.325 50.3264C203.269 50.2143 203.19 50.1219 203.09 50.049C202.989 49.9706 202.871 49.9118 202.737 49.8726C202.602 49.8333 202.459 49.8137 202.308 49.8137C201.916 49.8137 201.611 49.9342 201.392 50.1751C201.179 50.4104 201.073 50.7242 201.073 51.1163V51.8559C201.073 52.2481 201.179 52.5646 201.392 52.8055C201.611 53.0408 201.916 53.1585 202.308 53.1585ZM205.599 47.4355H206.271V50.0238H206.305C206.585 49.486 207.031 49.2171 207.641 49.2171C208.173 49.2171 208.588 49.416 208.885 49.8137C209.187 50.2115 209.339 50.769 209.339 51.4861C209.339 52.2032 209.187 52.7607 208.885 53.1585C208.588 53.5563 208.173 53.7551 207.641 53.7551C207.031 53.7551 206.585 53.4862 206.305 52.9484H206.271V53.6543H205.599V47.4355ZM207.381 53.1585C207.773 53.1585 208.075 53.0408 208.288 52.8055C208.507 52.5646 208.616 52.2481 208.616 51.8559V51.1163C208.616 50.7242 208.507 50.4104 208.288 50.1751C208.075 49.9342 207.773 49.8137 207.381 49.8137C207.229 49.8137 207.087 49.8333 206.952 49.8726C206.818 49.9118 206.7 49.9706 206.599 50.049C206.498 50.1219 206.417 50.2143 206.355 50.3264C206.299 50.4328 206.271 50.5589 206.271 50.7045V52.2677C206.271 52.4133 206.299 52.5422 206.355 52.6542C206.417 52.7607 206.498 52.8531 206.599 52.9316C206.7 53.0044 206.818 53.0604 206.952 53.0996C207.087 53.1389 207.229 53.1585 207.381 53.1585ZM212.487 53.6543C212.156 53.6543 211.913 53.5619 211.756 53.377C211.605 53.1921 211.529 52.954 211.529 52.6626V49.8894H210.083V49.3179H211.159C211.305 49.3179 211.406 49.2899 211.462 49.2339C211.523 49.1722 211.554 49.0686 211.554 48.9229V47.7884H212.201V49.3179H214.176V49.8894H212.201V53.0828H214.176V53.6543H212.487ZM217.232 53.7299C217.002 53.7299 216.84 53.6823 216.744 53.5871C216.655 53.4918 216.61 53.3714 216.61 53.2257V53.0744C216.61 52.9288 216.655 52.8083 216.744 52.7131C216.84 52.6178 217.002 52.5702 217.232 52.5702C217.462 52.5702 217.621 52.6178 217.711 52.7131C217.806 52.8083 217.854 52.9288 217.854 53.0744V53.2257C217.854 53.3714 217.806 53.4918 217.711 53.5871C217.621 53.6823 217.462 53.7299 217.232 53.7299ZM220.119 53.6543V49.3179H220.741V49.8221H220.775C220.842 49.6541 220.937 49.5112 221.061 49.3935C221.184 49.2759 221.366 49.2171 221.607 49.2171C221.859 49.2171 222.047 49.2815 222.17 49.4104C222.293 49.5336 222.369 49.6961 222.397 49.8978H222.422C222.501 49.7017 222.613 49.5392 222.758 49.4104C222.904 49.2815 223.106 49.2171 223.363 49.2171C223.716 49.2171 223.952 49.3403 224.069 49.5868C224.193 49.8333 224.254 50.1863 224.254 50.6457V53.6543H223.632V50.755C223.632 50.3852 223.593 50.1303 223.515 49.9902C223.442 49.8446 223.305 49.7717 223.103 49.7717C222.924 49.7717 222.778 49.8305 222.666 49.9482C222.554 50.0603 222.498 50.2339 222.498 50.4692V53.6543H221.876V50.755C221.876 50.3852 221.837 50.1303 221.758 49.9902C221.685 49.8446 221.551 49.7717 221.355 49.7717C221.176 49.7717 221.027 49.8305 220.909 49.9482C220.797 50.0603 220.741 50.2339 220.741 50.4692V53.6543H220.119ZM227.142 53.7551C226.839 53.7551 226.565 53.7019 226.318 53.5955C226.077 53.489 225.87 53.3378 225.696 53.1417C225.528 52.94 225.399 52.7019 225.31 52.4273C225.22 52.1472 225.175 51.8335 225.175 51.4861C225.175 51.1443 225.22 50.8334 225.31 50.5533C225.399 50.2731 225.528 50.035 225.696 49.839C225.87 49.6373 226.077 49.4832 226.318 49.3767C226.565 49.2703 226.839 49.2171 227.142 49.2171C227.444 49.2171 227.716 49.2703 227.957 49.3767C228.203 49.4832 228.411 49.6373 228.579 49.839C228.753 50.035 228.884 50.2731 228.974 50.5533C229.063 50.8334 229.108 51.1443 229.108 51.4861C229.108 51.8335 229.063 52.1472 228.974 52.4273C228.884 52.7019 228.753 52.94 228.579 53.1417C228.411 53.3378 228.203 53.489 227.957 53.5955C227.716 53.7019 227.444 53.7551 227.142 53.7551ZM227.142 53.1753C227.517 53.1753 227.82 53.0632 228.049 52.8391C228.279 52.615 228.394 52.2677 228.394 51.797V51.1752C228.394 50.7045 228.279 50.3572 228.049 50.1331C227.82 49.909 227.517 49.7969 227.142 49.7969C226.766 49.7969 226.464 49.909 226.234 50.1331C226.004 50.3572 225.89 50.7045 225.89 51.1752V51.797C225.89 52.2677 226.004 52.615 226.234 52.8391C226.464 53.0632 226.766 53.1753 227.142 53.1753ZM233.147 52.9484H233.114C232.834 53.4862 232.388 53.7551 231.777 53.7551C231.245 53.7551 230.828 53.5563 230.525 53.1585C230.228 52.7607 230.08 52.2032 230.08 51.4861C230.08 50.769 230.228 50.2115 230.525 49.8137C230.828 49.416 231.245 49.2171 231.777 49.2171C232.388 49.2171 232.834 49.486 233.114 50.0238H233.147V47.4355H233.82V53.6543H233.147V52.9484ZM232.038 53.1585C232.189 53.1585 232.332 53.1389 232.467 53.0996C232.601 53.0604 232.719 53.0044 232.82 52.9316C232.92 52.8531 232.999 52.7607 233.055 52.6542C233.116 52.5422 233.147 52.4133 233.147 52.2677V50.7045C233.147 50.5589 233.116 50.4328 233.055 50.3264C232.999 50.2143 232.92 50.1219 232.82 50.049C232.719 49.9706 232.601 49.9118 232.467 49.8726C232.332 49.8333 232.189 49.8137 232.038 49.8137C231.646 49.8137 231.34 49.9342 231.122 50.1751C230.909 50.4104 230.803 50.7242 230.803 51.1163V51.8559C230.803 52.2481 230.909 52.5646 231.122 52.8055C231.34 53.0408 231.646 53.1585 232.038 53.1585ZM237.127 53.7551C236.814 53.7551 236.531 53.7019 236.279 53.5955C236.032 53.489 235.819 53.3378 235.64 53.1417C235.466 52.94 235.332 52.7019 235.237 52.4273C235.141 52.1472 235.094 51.8363 235.094 51.4945C235.094 51.1471 235.141 50.8334 235.237 50.5533C235.337 50.2731 235.475 50.035 235.648 49.839C235.822 49.6373 236.029 49.4832 236.27 49.3767C236.517 49.2703 236.788 49.2171 237.085 49.2171C237.377 49.2171 237.64 49.2703 237.875 49.3767C238.116 49.4832 238.321 49.6317 238.489 49.8221C238.657 50.007 238.786 50.2283 238.875 50.486C238.965 50.7438 239.01 51.0267 239.01 51.3348V51.6542H235.8V51.8559C235.8 52.0464 235.83 52.2228 235.892 52.3853C235.954 52.5478 236.041 52.6879 236.153 52.8055C236.27 52.9232 236.41 53.0156 236.573 53.0828C236.741 53.1445 236.926 53.1753 237.127 53.1753C237.419 53.1753 237.671 53.108 237.884 52.9736C238.097 52.8391 238.259 52.6542 238.371 52.4189L238.867 52.7551C238.738 53.0464 238.522 53.2873 238.22 53.4778C237.923 53.6627 237.559 53.7551 237.127 53.7551ZM237.085 49.7717C236.9 49.7717 236.73 49.8053 236.573 49.8726C236.416 49.9398 236.279 50.0322 236.161 50.1499C236.049 50.2675 235.959 50.4076 235.892 50.5701C235.83 50.727 235.8 50.9006 235.8 51.0911V51.15H238.287V51.0575C238.287 50.867 238.256 50.6933 238.195 50.5365C238.139 50.3796 238.057 50.2451 237.951 50.1331C237.85 50.0154 237.724 49.9258 237.573 49.8642C237.427 49.8025 237.265 49.7717 237.085 49.7717ZM240.158 53.0828H241.671V48.0069H240.158V47.4355H242.343V53.0828H243.856V53.6543H240.158V53.0828ZM246.962 53.7299C246.732 53.7299 246.57 53.6823 246.474 53.5871C246.385 53.4918 246.34 53.3714 246.34 53.2257V53.0744C246.34 52.9288 246.385 52.8083 246.474 52.7131C246.57 52.6178 246.732 52.5702 246.962 52.5702C247.191 52.5702 247.351 52.6178 247.441 52.7131C247.536 52.8083 247.584 52.9288 247.584 53.0744V53.2257C247.584 53.3714 247.536 53.4918 247.441 53.5871C247.351 53.6823 247.191 53.7299 246.962 53.7299ZM250.219 53.6543V49.3179H250.891V50.0238H250.925C250.97 49.9174 251.026 49.8165 251.093 49.7213C251.16 49.6205 251.242 49.5336 251.337 49.4608C251.438 49.3879 251.555 49.3291 251.69 49.2843C251.824 49.2395 251.981 49.2171 252.16 49.2171C252.614 49.2171 252.978 49.3627 253.253 49.6541C253.527 49.9398 253.665 50.346 253.665 50.8726V53.6543H252.992V50.9903C252.992 50.5925 252.906 50.2984 252.732 50.1079C252.558 49.9118 252.303 49.8137 251.967 49.8137C251.833 49.8137 251.701 49.8305 251.572 49.8642C251.443 49.8978 251.328 49.9482 251.228 50.0154C251.127 50.0827 251.046 50.1695 250.984 50.276C250.922 50.3824 250.891 50.5057 250.891 50.6457V53.6543H250.219ZM258.51 53.6543C258.247 53.6543 258.059 53.5871 257.947 53.4526C257.835 53.3181 257.765 53.1501 257.737 52.9484H257.695C257.6 53.2005 257.446 53.3994 257.233 53.545C257.026 53.6851 256.746 53.7551 256.393 53.7551C255.939 53.7551 255.578 53.6375 255.309 53.4022C255.04 53.1669 254.905 52.8447 254.905 52.4357C254.905 52.0324 255.051 51.7214 255.342 51.5029C255.639 51.2844 256.115 51.1752 256.771 51.1752H257.695V50.7466C257.695 50.4272 257.606 50.1891 257.426 50.0322C257.247 49.8698 256.992 49.7885 256.662 49.7885C256.37 49.7885 256.132 49.8474 255.947 49.965C255.762 50.0771 255.614 50.2311 255.502 50.4272L255.048 50.0911C255.104 49.979 255.18 49.8698 255.275 49.7633C255.37 49.6569 255.488 49.5644 255.628 49.486C255.768 49.402 255.928 49.3375 256.107 49.2927C256.286 49.2423 256.485 49.2171 256.704 49.2171C257.213 49.2171 257.617 49.3459 257.914 49.6036C258.216 49.8614 258.368 50.2199 258.368 50.6793V53.066H258.973V53.6543H258.51ZM256.51 53.1921C256.684 53.1921 256.841 53.1725 256.981 53.1333C257.127 53.0884 257.253 53.0324 257.359 52.9652C257.466 52.8923 257.547 52.8083 257.603 52.7131C257.664 52.6122 257.695 52.5058 257.695 52.3937V51.6794H256.771C256.367 51.6794 256.073 51.7354 255.888 51.8475C255.704 51.9595 255.611 52.122 255.611 52.3349V52.5114C255.611 52.7355 255.69 52.9064 255.846 53.024C256.009 53.1361 256.23 53.1921 256.51 53.1921ZM259.759 53.6543V49.3179H260.381V49.8221H260.415C260.482 49.6541 260.577 49.5112 260.701 49.3935C260.824 49.2759 261.006 49.2171 261.247 49.2171C261.499 49.2171 261.687 49.2815 261.81 49.4104C261.933 49.5336 262.009 49.6961 262.037 49.8978H262.062C262.14 49.7017 262.252 49.5392 262.398 49.4104C262.544 49.2815 262.746 49.2171 263.003 49.2171C263.356 49.2171 263.592 49.3403 263.709 49.5868C263.832 49.8333 263.894 50.1863 263.894 50.6457V53.6543H263.272V50.755C263.272 50.3852 263.233 50.1303 263.155 49.9902C263.082 49.8446 262.944 49.7717 262.743 49.7717C262.563 49.7717 262.418 49.8305 262.306 49.9482C262.194 50.0603 262.138 50.2339 262.138 50.4692V53.6543H261.516V50.755C261.516 50.3852 261.477 50.1303 261.398 49.9902C261.325 49.8446 261.191 49.7717 260.995 49.7717C260.815 49.7717 260.667 49.8305 260.549 49.9482C260.437 50.0603 260.381 50.2339 260.381 50.4692V53.6543H259.759ZM266.857 53.7551C266.544 53.7551 266.261 53.7019 266.009 53.5955C265.762 53.489 265.549 53.3378 265.37 53.1417C265.196 52.94 265.062 52.7019 264.966 52.4273C264.871 52.1472 264.824 51.8363 264.824 51.4945C264.824 51.1471 264.871 50.8334 264.966 50.5533C265.067 50.2731 265.205 50.035 265.378 49.839C265.552 49.6373 265.759 49.4832 266 49.3767C266.247 49.2703 266.518 49.2171 266.815 49.2171C267.107 49.2171 267.37 49.2703 267.605 49.3767C267.846 49.4832 268.051 49.6317 268.219 49.8221C268.387 50.007 268.516 50.2283 268.605 50.486C268.695 50.7438 268.74 51.0267 268.74 51.3348V51.6542H265.53V51.8559C265.53 52.0464 265.56 52.2228 265.622 52.3853C265.684 52.5478 265.77 52.6879 265.882 52.8055C266 52.9232 266.14 53.0156 266.303 53.0828C266.471 53.1445 266.656 53.1753 266.857 53.1753C267.149 53.1753 267.401 53.108 267.614 52.9736C267.827 52.8391 267.989 52.6542 268.101 52.4189L268.597 52.7551C268.468 53.0464 268.252 53.2873 267.95 53.4778C267.653 53.6627 267.289 53.7551 266.857 53.7551ZM266.815 49.7717C266.63 49.7717 266.46 49.8053 266.303 49.8726C266.146 49.9398 266.009 50.0322 265.891 50.1499C265.779 50.2675 265.689 50.4076 265.622 50.5701C265.56 50.727 265.53 50.9006 265.53 51.0911V51.15H268.017V51.0575C268.017 50.867 267.986 50.6933 267.925 50.5365C267.869 50.3796 267.787 50.2451 267.681 50.1331C267.58 50.0154 267.454 49.9258 267.303 49.8642C267.157 49.8025 266.995 49.7717 266.815 49.7717ZM271.737 53.7299C271.507 53.7299 271.344 53.6823 271.249 53.5871C271.16 53.4918 271.115 53.3714 271.115 53.2257V53.0744C271.115 52.9288 271.16 52.8083 271.249 52.7131C271.344 52.6178 271.507 52.5702 271.737 52.5702C271.966 52.5702 272.126 52.6178 272.216 52.7131C272.311 52.8083 272.359 52.9288 272.359 53.0744V53.2257C272.359 53.3714 272.311 53.4918 272.216 53.5871C272.126 53.6823 271.966 53.7299 271.737 53.7299ZM278.683 53.6543H274.767V52.9316L276.725 51.1668C277.011 50.909 277.246 50.6457 277.431 50.3768C277.616 50.1023 277.709 49.8137 277.709 49.5112V49.4104C277.709 49.0574 277.616 48.7857 277.431 48.5952C277.246 48.3991 276.972 48.301 276.608 48.301C276.249 48.301 275.972 48.3935 275.776 48.5784C275.585 48.7577 275.442 48.9986 275.347 49.3011L274.717 49.0658C274.773 48.8921 274.848 48.724 274.944 48.5616C275.045 48.3935 275.171 48.245 275.322 48.1162C275.473 47.9873 275.655 47.8837 275.868 47.8052C276.087 47.7268 276.339 47.6876 276.624 47.6876C276.916 47.6876 277.173 47.7296 277.398 47.8136C277.627 47.8977 277.818 48.0153 277.969 48.1666C278.126 48.3179 278.244 48.4971 278.322 48.7044C278.406 48.9117 278.448 49.1386 278.448 49.3851C278.448 49.6092 278.414 49.8193 278.347 50.0154C278.286 50.2115 278.196 50.3992 278.078 50.5785C277.966 50.7578 277.829 50.9343 277.667 51.1079C277.51 51.276 277.333 51.4441 277.137 51.6122L275.498 53.0408H278.683V53.6543Z" fill="#667085"/>
<rect x="31.1714" y="110.242" width="75.3671" height="13.7702" rx="6.8851" fill="white"/>
<rect x="31.1714" y="110.242" width="75.3671" height="13.7702" rx="6.8851" stroke="#EAECF0" stroke-width="0.342745"/>
<path d="M40.6231 118.58H40.5971C40.38 118.997 40.0349 119.205 39.5617 119.205C39.1492 119.205 38.8258 119.051 38.5913 118.743C38.3612 118.434 38.2462 118.003 38.2462 117.447C38.2462 116.891 38.3612 116.459 38.5913 116.151C38.8258 115.843 39.1492 115.689 39.5617 115.689C40.0349 115.689 40.38 115.897 40.5971 116.314H40.6231V114.308H41.1441V119.127H40.6231V118.58ZM39.7635 118.743C39.8807 118.743 39.9915 118.728 40.0957 118.697C40.1998 118.667 40.291 118.623 40.3692 118.567C40.4473 118.506 40.5081 118.434 40.5515 118.352C40.5993 118.265 40.6231 118.165 40.6231 118.052V116.841C40.6231 116.728 40.5993 116.631 40.5515 116.548C40.5081 116.461 40.4473 116.39 40.3692 116.333C40.291 116.272 40.1998 116.227 40.0957 116.196C39.9915 116.166 39.8807 116.151 39.7635 116.151C39.4596 116.151 39.223 116.244 39.0537 116.431C38.8887 116.613 38.8062 116.856 38.8062 117.16V117.733C38.8062 118.037 38.8887 118.283 39.0537 118.469C39.223 118.652 39.4596 118.743 39.7635 118.743ZM42.3138 114.308H42.8347V116.314H42.8608C43.0778 115.897 43.423 115.689 43.8962 115.689C44.3086 115.689 44.6299 115.843 44.86 116.151C45.0944 116.459 45.2117 116.891 45.2117 117.447C45.2117 118.003 45.0944 118.434 44.86 118.743C44.6299 119.051 44.3086 119.205 43.8962 119.205C43.423 119.205 43.0778 118.997 42.8608 118.58H42.8347V119.127H42.3138V114.308ZM43.6943 118.743C43.9982 118.743 44.2327 118.652 44.3976 118.469C44.567 118.283 44.6516 118.037 44.6516 117.733V117.16C44.6516 116.856 44.567 116.613 44.3976 116.431C44.2327 116.244 43.9982 116.151 43.6943 116.151C43.5771 116.151 43.4664 116.166 43.3622 116.196C43.258 116.227 43.1668 116.272 43.0887 116.333C43.0106 116.39 42.9476 116.461 42.8998 116.548C42.8564 116.631 42.8347 116.728 42.8347 116.841V118.052C42.8347 118.165 42.8564 118.265 42.8998 118.352C42.9476 118.434 43.0106 118.506 43.0887 118.567C43.1668 118.623 43.258 118.667 43.3622 118.697C43.4664 118.728 43.5771 118.743 43.6943 118.743ZM47.6512 119.127C47.395 119.127 47.2062 119.055 47.0846 118.912C46.9674 118.769 46.9088 118.584 46.9088 118.359V116.21H45.7887V115.767H46.6223C46.7351 115.767 46.8133 115.745 46.8567 115.702C46.9044 115.654 46.9283 115.573 46.9283 115.461V114.581H47.4298V115.767H48.9601V116.21H47.4298V118.684H48.9601V119.127H47.6512ZM51.328 119.186C51.15 119.186 51.0241 119.149 50.9503 119.075C50.8808 119.001 50.8461 118.908 50.8461 118.795V118.678C50.8461 118.565 50.8808 118.471 50.9503 118.398C51.0241 118.324 51.15 118.287 51.328 118.287C51.506 118.287 51.6297 118.324 51.6992 118.398C51.773 118.471 51.8099 118.565 51.8099 118.678V118.795C51.8099 118.908 51.773 119.001 51.6992 119.075C51.6297 119.149 51.506 119.186 51.328 119.186ZM53.5656 119.127V115.767H54.0475V116.157H54.0736C54.1257 116.027 54.1995 115.916 54.295 115.825C54.3905 115.734 54.5316 115.689 54.7183 115.689C54.9137 115.689 55.0591 115.738 55.1546 115.838C55.2501 115.934 55.3087 116.06 55.3304 116.216H55.35C55.4108 116.064 55.4976 115.938 55.6105 115.838C55.7233 115.738 55.8796 115.689 56.0793 115.689C56.3528 115.689 56.5352 115.784 56.6264 115.975C56.7219 116.166 56.7696 116.44 56.7696 116.796V119.127H56.2877V116.88C56.2877 116.594 56.2573 116.396 56.1966 116.288C56.1401 116.175 56.0337 116.118 55.8775 116.118C55.7385 116.118 55.6257 116.164 55.5388 116.255C55.452 116.342 55.4086 116.477 55.4086 116.659V119.127H54.9267V116.88C54.9267 116.594 54.8963 116.396 54.8355 116.288C54.7791 116.175 54.6749 116.118 54.5229 116.118C54.384 116.118 54.269 116.164 54.1778 116.255C54.091 116.342 54.0475 116.477 54.0475 116.659V119.127H53.5656ZM59.0073 119.205C58.7728 119.205 58.5601 119.164 58.3691 119.081C58.1824 118.999 58.0218 118.882 57.8872 118.73C57.7569 118.573 57.6571 118.389 57.5876 118.176C57.5181 117.959 57.4834 117.716 57.4834 117.447C57.4834 117.182 57.5181 116.941 57.5876 116.724C57.6571 116.507 57.7569 116.322 57.8872 116.17C58.0218 116.014 58.1824 115.895 58.3691 115.812C58.5601 115.73 58.7728 115.689 59.0073 115.689C59.2417 115.689 59.4523 115.73 59.6389 115.812C59.83 115.895 59.9906 116.014 60.1208 116.17C60.2554 116.322 60.3574 116.507 60.4269 116.724C60.4964 116.941 60.5311 117.182 60.5311 117.447C60.5311 117.716 60.4964 117.959 60.4269 118.176C60.3574 118.389 60.2554 118.573 60.1208 118.73C59.9906 118.882 59.83 118.999 59.6389 119.081C59.4523 119.164 59.2417 119.205 59.0073 119.205ZM59.0073 118.756C59.2981 118.756 59.5326 118.669 59.7106 118.495C59.8886 118.322 59.9776 118.052 59.9776 117.688V117.206C59.9776 116.841 59.8886 116.572 59.7106 116.398C59.5326 116.225 59.2981 116.138 59.0073 116.138C58.7164 116.138 58.4819 116.225 58.3039 116.398C58.1259 116.572 58.0369 116.841 58.0369 117.206V117.688C58.0369 118.052 58.1259 118.322 58.3039 118.495C58.4819 118.669 58.7164 118.756 59.0073 118.756ZM63.6609 118.58H63.6349C63.4178 118.997 63.0726 119.205 62.5994 119.205C62.187 119.205 61.8636 119.051 61.6291 118.743C61.399 118.434 61.284 118.003 61.284 117.447C61.284 116.891 61.399 116.459 61.6291 116.151C61.8636 115.843 62.187 115.689 62.5994 115.689C63.0726 115.689 63.4178 115.897 63.6349 116.314H63.6609V114.308H64.1819V119.127H63.6609V118.58ZM62.8013 118.743C62.9185 118.743 63.0292 118.728 63.1334 118.697C63.2376 118.667 63.3288 118.623 63.4069 118.567C63.4851 118.506 63.5459 118.434 63.5893 118.352C63.637 118.265 63.6609 118.165 63.6609 118.052V116.841C63.6609 116.728 63.637 116.631 63.5893 116.548C63.5459 116.461 63.4851 116.39 63.4069 116.333C63.3288 116.272 63.2376 116.227 63.1334 116.196C63.0292 116.166 62.9185 116.151 62.8013 116.151C62.4974 116.151 62.2608 116.244 62.0915 116.431C61.9265 116.613 61.844 116.856 61.844 117.16V117.733C61.844 118.037 61.9265 118.283 62.0915 118.469C62.2608 118.652 62.4974 118.743 62.8013 118.743ZM66.7451 119.205C66.502 119.205 66.2828 119.164 66.0874 119.081C65.8964 118.999 65.7314 118.882 65.5925 118.73C65.4579 118.573 65.3537 118.389 65.2799 118.176C65.2061 117.959 65.1692 117.718 65.1692 117.453C65.1692 117.184 65.2061 116.941 65.2799 116.724C65.358 116.507 65.4644 116.322 65.599 116.17C65.7336 116.014 65.8942 115.895 66.0809 115.812C66.2719 115.73 66.4825 115.689 66.7126 115.689C66.9383 115.689 67.1424 115.73 67.3247 115.812C67.5114 115.895 67.6699 116.01 67.8001 116.157C67.9303 116.301 68.0302 116.472 68.0997 116.672C68.1691 116.872 68.2038 117.091 68.2038 117.33V117.577H65.7162V117.733C65.7162 117.881 65.7401 118.018 65.7878 118.144C65.8356 118.27 65.9029 118.378 65.9897 118.469C66.0809 118.56 66.1894 118.632 66.3153 118.684C66.4456 118.732 66.5888 118.756 66.7451 118.756C66.9709 118.756 67.1662 118.704 67.3312 118.599C67.4962 118.495 67.6221 118.352 67.7089 118.17L68.0931 118.43C67.9933 118.656 67.8261 118.843 67.5917 118.99C67.3616 119.133 67.0794 119.205 66.7451 119.205ZM66.7126 116.118C66.5693 116.118 66.4369 116.144 66.3153 116.196C66.1938 116.249 66.0874 116.32 65.9962 116.411C65.9094 116.503 65.8399 116.611 65.7878 116.737C65.7401 116.859 65.7162 116.993 65.7162 117.141V117.186H67.6438V117.115C67.6438 116.967 67.6199 116.833 67.5722 116.711C67.5288 116.589 67.4658 116.485 67.3833 116.398C67.3052 116.307 67.2075 116.238 67.0903 116.19C66.9774 116.142 66.8515 116.118 66.7126 116.118ZM69.0935 118.684H70.2657V114.751H69.0935V114.308H70.7866V118.684H71.9588V119.127H69.0935V118.684ZM74.3658 119.186C74.1878 119.186 74.0619 119.149 73.9881 119.075C73.9186 119.001 73.8839 118.908 73.8839 118.795V118.678C73.8839 118.565 73.9186 118.471 73.9881 118.398C74.0619 118.324 74.1878 118.287 74.3658 118.287C74.5438 118.287 74.6675 118.324 74.737 118.398C74.8108 118.471 74.8477 118.565 74.8477 118.678V118.795C74.8477 118.908 74.8108 119.001 74.737 119.075C74.6675 119.149 74.5438 119.186 74.3658 119.186ZM76.8899 119.127V115.767H77.4109V116.314H77.437C77.4717 116.231 77.5151 116.153 77.5672 116.079C77.6193 116.001 77.6823 115.934 77.7561 115.877C77.8342 115.821 77.9254 115.775 78.0296 115.741C78.1338 115.706 78.2553 115.689 78.3943 115.689C78.7459 115.689 79.0281 115.801 79.2408 116.027C79.4536 116.249 79.5599 116.563 79.5599 116.971V119.127H79.039V117.063C79.039 116.754 78.9717 116.526 78.8371 116.379C78.7025 116.227 78.505 116.151 78.2445 116.151C78.1403 116.151 78.0383 116.164 77.9384 116.19C77.8386 116.216 77.7496 116.255 77.6714 116.307C77.5933 116.359 77.5303 116.427 77.4826 116.509C77.4348 116.592 77.4109 116.687 77.4109 116.796V119.127H76.8899ZM83.3149 119.127C83.1109 119.127 82.9654 119.075 82.8786 118.971C82.7918 118.866 82.7375 118.736 82.7158 118.58H82.6832C82.6094 118.775 82.49 118.929 82.3251 119.042C82.1644 119.151 81.9473 119.205 81.6738 119.205C81.3222 119.205 81.0422 119.114 80.8338 118.932C80.6254 118.749 80.5212 118.5 80.5212 118.183C80.5212 117.87 80.6341 117.629 80.8598 117.46C81.0899 117.291 81.4589 117.206 81.9669 117.206H82.6832V116.874C82.6832 116.626 82.6138 116.442 82.4748 116.32C82.3359 116.194 82.1384 116.131 81.8822 116.131C81.6565 116.131 81.472 116.177 81.3287 116.268C81.1854 116.355 81.0704 116.474 80.9835 116.626L80.6319 116.366C80.6753 116.279 80.7339 116.194 80.8077 116.112C80.8815 116.029 80.9727 115.958 81.0812 115.897C81.1898 115.832 81.3135 115.782 81.4524 115.747C81.5913 115.708 81.7455 115.689 81.9148 115.689C82.3099 115.689 82.6224 115.788 82.8525 115.988C83.087 116.188 83.2042 116.466 83.2042 116.822V118.671H83.6731V119.127H83.3149ZM81.765 118.769C81.8996 118.769 82.0212 118.754 82.1297 118.723C82.2426 118.688 82.3402 118.645 82.4227 118.593C82.5052 118.537 82.5682 118.471 82.6116 118.398C82.6593 118.319 82.6832 118.237 82.6832 118.15V117.597H81.9669C81.6543 117.597 81.4264 117.64 81.2831 117.727C81.1398 117.814 81.0682 117.94 81.0682 118.105V118.241C81.0682 118.415 81.129 118.547 81.2505 118.639C81.3764 118.725 81.5479 118.769 81.765 118.769ZM84.2827 119.127V115.767H84.7646V116.157H84.7906C84.8427 116.027 84.9165 115.916 85.012 115.825C85.1075 115.734 85.2486 115.689 85.4353 115.689C85.6307 115.689 85.7761 115.738 85.8716 115.838C85.9671 115.934 86.0258 116.06 86.0475 116.216H86.067C86.1278 116.064 86.2146 115.938 86.3275 115.838C86.4404 115.738 86.5967 115.689 86.7964 115.689C87.0699 115.689 87.2522 115.784 87.3434 115.975C87.4389 116.166 87.4866 116.44 87.4866 116.796V119.127H87.0047V116.88C87.0047 116.594 86.9744 116.396 86.9136 116.288C86.8571 116.175 86.7508 116.118 86.5945 116.118C86.4556 116.118 86.3427 116.164 86.2559 116.255C86.169 116.342 86.1256 116.477 86.1256 116.659V119.127H85.6437V116.88C85.6437 116.594 85.6133 116.396 85.5525 116.288C85.4961 116.175 85.3919 116.118 85.24 116.118C85.101 116.118 84.986 116.164 84.8948 116.255C84.808 116.342 84.7646 116.477 84.7646 116.659V119.127H84.2827ZM89.7829 119.205C89.5398 119.205 89.3205 119.164 89.1252 119.081C88.9341 118.999 88.7692 118.882 88.6302 118.73C88.4957 118.573 88.3915 118.389 88.3177 118.176C88.2439 117.959 88.207 117.718 88.207 117.453C88.207 117.184 88.2439 116.941 88.3177 116.724C88.3958 116.507 88.5022 116.322 88.6368 116.17C88.7713 116.014 88.932 115.895 89.1187 115.812C89.3097 115.73 89.5202 115.689 89.7503 115.689C89.9761 115.689 90.1801 115.73 90.3625 115.812C90.5492 115.895 90.7076 116.01 90.8379 116.157C90.9681 116.301 91.068 116.472 91.1374 116.672C91.2069 116.872 91.2416 117.091 91.2416 117.33V117.577H88.754V117.733C88.754 117.881 88.7779 118.018 88.8256 118.144C88.8734 118.27 88.9407 118.378 89.0275 118.469C89.1187 118.56 89.2272 118.632 89.3531 118.684C89.4833 118.732 89.6266 118.756 89.7829 118.756C90.0087 118.756 90.204 118.704 90.369 118.599C90.534 118.495 90.6599 118.352 90.7467 118.17L91.1309 118.43C91.0311 118.656 90.8639 118.843 90.6295 118.99C90.3994 119.133 90.1172 119.205 89.7829 119.205ZM89.7503 116.118C89.6071 116.118 89.4747 116.144 89.3531 116.196C89.2315 116.249 89.1252 116.32 89.034 116.411C88.9472 116.503 88.8777 116.611 88.8256 116.737C88.7779 116.859 88.754 116.993 88.754 117.141V117.186H90.6816V117.115C90.6816 116.967 90.6577 116.833 90.6099 116.711C90.5665 116.589 90.5036 116.485 90.4211 116.398C90.3429 116.307 90.2453 116.238 90.128 116.19C90.0152 116.142 89.8893 116.118 89.7503 116.118ZM93.5639 119.186C93.3859 119.186 93.26 119.149 93.1862 119.075C93.1167 119.001 93.082 118.908 93.082 118.795V118.678C93.082 118.565 93.1167 118.471 93.1862 118.398C93.26 118.324 93.3859 118.287 93.5639 118.287C93.7419 118.287 93.8656 118.324 93.9351 118.398C94.0089 118.471 94.0458 118.565 94.0458 118.678V118.795C94.0458 118.908 94.0089 119.001 93.9351 119.075C93.8656 119.149 93.7419 119.186 93.5639 119.186ZM97.2082 116.509C97.5251 116.509 97.7617 116.44 97.918 116.301C98.0786 116.157 98.159 115.975 98.159 115.754V115.708C98.159 115.465 98.0808 115.283 97.9245 115.161C97.7726 115.039 97.5729 114.979 97.3254 114.979C97.0823 114.979 96.8847 115.033 96.7328 115.142C96.5852 115.246 96.4636 115.385 96.3681 115.558L95.9578 115.246C96.0143 115.155 96.0837 115.066 96.1662 114.979C96.2487 114.888 96.3442 114.807 96.4528 114.738C96.5656 114.668 96.6937 114.612 96.837 114.568C96.9846 114.525 97.1517 114.503 97.3384 114.503C97.5338 114.503 97.7161 114.529 97.8854 114.581C98.0548 114.629 98.2024 114.703 98.3283 114.803C98.4542 114.898 98.5519 115.018 98.6213 115.161C98.6951 115.304 98.732 115.467 98.732 115.649C98.732 115.797 98.7081 115.929 98.6604 116.047C98.617 116.164 98.554 116.266 98.4715 116.353C98.3934 116.44 98.3001 116.513 98.1915 116.574C98.083 116.635 97.9679 116.681 97.8464 116.711V116.737C97.9723 116.763 98.0938 116.806 98.2111 116.867C98.3283 116.924 98.4325 117 98.5236 117.095C98.6148 117.186 98.6864 117.299 98.7385 117.434C98.795 117.564 98.8232 117.714 98.8232 117.883C98.8232 118.078 98.7841 118.259 98.706 118.424C98.6322 118.584 98.5258 118.723 98.3869 118.84C98.2523 118.953 98.0873 119.042 97.892 119.107C97.7009 119.173 97.4882 119.205 97.2538 119.205C97.0541 119.205 96.8761 119.183 96.7198 119.14C96.5678 119.097 96.4311 119.038 96.3095 118.964C96.1923 118.89 96.0881 118.808 95.9969 118.717C95.9101 118.626 95.8319 118.53 95.7625 118.43L96.1727 118.118C96.2335 118.209 96.2965 118.291 96.3616 118.365C96.4267 118.439 96.5005 118.504 96.583 118.56C96.6698 118.612 96.7675 118.654 96.8761 118.684C96.9846 118.715 97.1105 118.73 97.2538 118.73C97.575 118.73 97.8203 118.656 97.9896 118.508C98.1633 118.361 98.2501 118.15 98.2501 117.877V117.825C98.2501 117.555 98.1655 117.347 97.9962 117.199C97.8312 117.052 97.5815 116.978 97.2473 116.978H96.7067V116.509H97.2082Z" fill="#667085"/>
<rect x="194.171" y="124.171" width="75.3671" height="13.7702" rx="6.8851" fill="white"/>
<rect x="194.171" y="124.171" width="75.3671" height="13.7702" rx="6.8851" stroke="#EAECF0" stroke-width="0.342745"/>
<path d="M203.623 132.51H203.597C203.38 132.926 203.035 133.135 202.562 133.135C202.149 133.135 201.826 132.981 201.591 132.672C201.361 132.364 201.246 131.932 201.246 131.377C201.246 130.821 201.361 130.389 201.591 130.081C201.826 129.772 202.149 129.618 202.562 129.618C203.035 129.618 203.38 129.827 203.597 130.243H203.623V128.238H204.144V133.057H203.623V132.51ZM202.764 132.672C202.881 132.672 202.991 132.657 203.096 132.627C203.2 132.596 203.291 132.553 203.369 132.497C203.447 132.436 203.508 132.364 203.552 132.282C203.599 132.195 203.623 132.095 203.623 131.982V130.771C203.623 130.658 203.599 130.56 203.552 130.478C203.508 130.391 203.447 130.319 203.369 130.263C203.291 130.202 203.2 130.157 203.096 130.126C202.991 130.096 202.881 130.081 202.764 130.081C202.46 130.081 202.223 130.174 202.054 130.361C201.889 130.543 201.806 130.786 201.806 131.09V131.663C201.806 131.967 201.889 132.212 202.054 132.399C202.223 132.581 202.46 132.672 202.764 132.672ZM205.314 128.238H205.835V130.243H205.861C206.078 129.827 206.423 129.618 206.896 129.618C207.309 129.618 207.63 129.772 207.86 130.081C208.094 130.389 208.212 130.821 208.212 131.377C208.212 131.932 208.094 132.364 207.86 132.672C207.63 132.981 207.309 133.135 206.896 133.135C206.423 133.135 206.078 132.926 205.861 132.51H205.835V133.057H205.314V128.238ZM206.694 132.672C206.998 132.672 207.233 132.581 207.398 132.399C207.567 132.212 207.652 131.967 207.652 131.663V131.09C207.652 130.786 207.567 130.543 207.398 130.361C207.233 130.174 206.998 130.081 206.694 130.081C206.577 130.081 206.466 130.096 206.362 130.126C206.258 130.157 206.167 130.202 206.089 130.263C206.011 130.319 205.948 130.391 205.9 130.478C205.856 130.56 205.835 130.658 205.835 130.771V131.982C205.835 132.095 205.856 132.195 205.9 132.282C205.948 132.364 206.011 132.436 206.089 132.497C206.167 132.553 206.258 132.596 206.362 132.627C206.466 132.657 206.577 132.672 206.694 132.672ZM210.651 133.057C210.395 133.057 210.206 132.985 210.085 132.842C209.967 132.698 209.909 132.514 209.909 132.288V130.139H208.789V129.696H209.622C209.735 129.696 209.813 129.675 209.857 129.631C209.904 129.583 209.928 129.503 209.928 129.39V128.511H210.43V129.696H211.96V130.139H210.43V132.614H211.96V133.057H210.651ZM214.328 133.115C214.15 133.115 214.024 133.078 213.95 133.005C213.881 132.931 213.846 132.837 213.846 132.725V132.607C213.846 132.494 213.881 132.401 213.95 132.327C214.024 132.253 214.15 132.217 214.328 132.217C214.506 132.217 214.63 132.253 214.699 132.327C214.773 132.401 214.81 132.494 214.81 132.607V132.725C214.81 132.837 214.773 132.931 214.699 133.005C214.63 133.078 214.506 133.115 214.328 133.115ZM216.566 133.057V129.696H217.048V130.087H217.074C217.126 129.957 217.199 129.846 217.295 129.755C217.391 129.664 217.532 129.618 217.718 129.618C217.914 129.618 218.059 129.668 218.155 129.768C218.25 129.864 218.309 129.989 218.33 130.146H218.35C218.411 129.994 218.498 129.868 218.61 129.768C218.723 129.668 218.88 129.618 219.079 129.618C219.353 129.618 219.535 129.714 219.626 129.905C219.722 130.096 219.77 130.369 219.77 130.725V133.057H219.288V130.81C219.288 130.523 219.257 130.326 219.197 130.217C219.14 130.104 219.034 130.048 218.877 130.048C218.739 130.048 218.626 130.094 218.539 130.185C218.452 130.272 218.409 130.406 218.409 130.589V133.057H217.927V130.81C217.927 130.523 217.896 130.326 217.836 130.217C217.779 130.104 217.675 130.048 217.523 130.048C217.384 130.048 217.269 130.094 217.178 130.185C217.091 130.272 217.048 130.406 217.048 130.589V133.057H216.566ZM222.007 133.135C221.773 133.135 221.56 133.094 221.369 133.011C221.182 132.929 221.022 132.811 220.887 132.659C220.757 132.503 220.657 132.319 220.588 132.106C220.518 131.889 220.483 131.646 220.483 131.377C220.483 131.112 220.518 130.871 220.588 130.654C220.657 130.437 220.757 130.252 220.887 130.1C221.022 129.944 221.182 129.824 221.369 129.742C221.56 129.659 221.773 129.618 222.007 129.618C222.242 129.618 222.452 129.659 222.639 129.742C222.83 129.824 222.991 129.944 223.121 130.1C223.255 130.252 223.357 130.437 223.427 130.654C223.496 130.871 223.531 131.112 223.531 131.377C223.531 131.646 223.496 131.889 223.427 132.106C223.357 132.319 223.255 132.503 223.121 132.659C222.991 132.811 222.83 132.929 222.639 133.011C222.452 133.094 222.242 133.135 222.007 133.135ZM222.007 132.685C222.298 132.685 222.533 132.599 222.711 132.425C222.889 132.251 222.978 131.982 222.978 131.617V131.136C222.978 130.771 222.889 130.502 222.711 130.328C222.533 130.154 222.298 130.068 222.007 130.068C221.716 130.068 221.482 130.154 221.304 130.328C221.126 130.502 221.037 130.771 221.037 131.136V131.617C221.037 131.982 221.126 132.251 221.304 132.425C221.482 132.599 221.716 132.685 222.007 132.685ZM226.661 132.51H226.635C226.418 132.926 226.073 133.135 225.599 133.135C225.187 133.135 224.864 132.981 224.629 132.672C224.399 132.364 224.284 131.932 224.284 131.377C224.284 130.821 224.399 130.389 224.629 130.081C224.864 129.772 225.187 129.618 225.599 129.618C226.073 129.618 226.418 129.827 226.635 130.243H226.661V128.238H227.182V133.057H226.661V132.51ZM225.801 132.672C225.919 132.672 226.029 132.657 226.133 132.627C226.238 132.596 226.329 132.553 226.407 132.497C226.485 132.436 226.546 132.364 226.589 132.282C226.637 132.195 226.661 132.095 226.661 131.982V130.771C226.661 130.658 226.637 130.56 226.589 130.478C226.546 130.391 226.485 130.319 226.407 130.263C226.329 130.202 226.238 130.157 226.133 130.126C226.029 130.096 225.919 130.081 225.801 130.081C225.497 130.081 225.261 130.174 225.091 130.361C224.927 130.543 224.844 130.786 224.844 131.09V131.663C224.844 131.967 224.927 132.212 225.091 132.399C225.261 132.581 225.497 132.672 225.801 132.672ZM229.745 133.135C229.502 133.135 229.283 133.094 229.087 133.011C228.896 132.929 228.731 132.811 228.592 132.659C228.458 132.503 228.354 132.319 228.28 132.106C228.206 131.889 228.169 131.648 228.169 131.383C228.169 131.114 228.206 130.871 228.28 130.654C228.358 130.437 228.464 130.252 228.599 130.1C228.734 129.944 228.894 129.824 229.081 129.742C229.272 129.659 229.482 129.618 229.713 129.618C229.938 129.618 230.142 129.659 230.325 129.742C230.511 129.824 230.67 129.939 230.8 130.087C230.93 130.23 231.03 130.402 231.1 130.602C231.169 130.801 231.204 131.021 231.204 131.259V131.507H228.716V131.663C228.716 131.811 228.74 131.947 228.788 132.073C228.836 132.199 228.903 132.308 228.99 132.399C229.081 132.49 229.189 132.562 229.315 132.614C229.446 132.662 229.589 132.685 229.745 132.685C229.971 132.685 230.166 132.633 230.331 132.529C230.496 132.425 230.622 132.282 230.709 132.099L231.093 132.36C230.993 132.586 230.826 132.772 230.592 132.92C230.362 133.063 230.079 133.135 229.745 133.135ZM229.713 130.048C229.569 130.048 229.437 130.074 229.315 130.126C229.194 130.178 229.087 130.25 228.996 130.341C228.909 130.432 228.84 130.541 228.788 130.667C228.74 130.788 228.716 130.923 228.716 131.07V131.116H230.644V131.044C230.644 130.897 230.62 130.762 230.572 130.641C230.529 130.519 230.466 130.415 230.383 130.328C230.305 130.237 230.207 130.167 230.09 130.12C229.977 130.072 229.851 130.048 229.713 130.048ZM232.093 132.614H233.266V128.68H232.093V128.238H233.787V132.614H234.959V133.057H232.093V132.614ZM237.366 133.115C237.188 133.115 237.062 133.078 236.988 133.005C236.919 132.931 236.884 132.837 236.884 132.725V132.607C236.884 132.494 236.919 132.401 236.988 132.327C237.062 132.253 237.188 132.217 237.366 132.217C237.544 132.217 237.668 132.253 237.737 132.327C237.811 132.401 237.848 132.494 237.848 132.607V132.725C237.848 132.837 237.811 132.931 237.737 133.005C237.668 133.078 237.544 133.115 237.366 133.115ZM239.89 133.057V129.696H240.411V130.243H240.437C240.472 130.161 240.515 130.083 240.567 130.009C240.619 129.931 240.682 129.864 240.756 129.807C240.834 129.751 240.925 129.705 241.03 129.67C241.134 129.636 241.255 129.618 241.394 129.618C241.746 129.618 242.028 129.731 242.241 129.957C242.454 130.178 242.56 130.493 242.56 130.901V133.057H242.039V130.992C242.039 130.684 241.972 130.456 241.837 130.309C241.702 130.157 241.505 130.081 241.244 130.081C241.14 130.081 241.038 130.094 240.938 130.12C240.839 130.146 240.75 130.185 240.671 130.237C240.593 130.289 240.53 130.356 240.483 130.439C240.435 130.521 240.411 130.617 240.411 130.725V133.057H239.89ZM246.315 133.057C246.111 133.057 245.965 133.005 245.879 132.9C245.792 132.796 245.737 132.666 245.716 132.51H245.683C245.609 132.705 245.49 132.859 245.325 132.972C245.164 133.081 244.947 133.135 244.674 133.135C244.322 133.135 244.042 133.044 243.834 132.861C243.625 132.679 243.521 132.429 243.521 132.112C243.521 131.8 243.634 131.559 243.86 131.39C244.09 131.22 244.459 131.136 244.967 131.136H245.683V130.803C245.683 130.556 245.614 130.371 245.475 130.25C245.336 130.124 245.138 130.061 244.882 130.061C244.656 130.061 244.472 130.107 244.329 130.198C244.185 130.285 244.07 130.404 243.984 130.556L243.632 130.295C243.675 130.209 243.734 130.124 243.808 130.042C243.882 129.959 243.973 129.887 244.081 129.827C244.19 129.761 244.313 129.712 244.452 129.677C244.591 129.638 244.745 129.618 244.915 129.618C245.31 129.618 245.622 129.718 245.853 129.918C246.087 130.117 246.204 130.395 246.204 130.751V132.601H246.673V133.057H246.315ZM244.765 132.698C244.9 132.698 245.021 132.683 245.13 132.653C245.243 132.618 245.34 132.575 245.423 132.523C245.505 132.466 245.568 132.401 245.612 132.327C245.659 132.249 245.683 132.167 245.683 132.08V131.526H244.967C244.654 131.526 244.426 131.57 244.283 131.657C244.14 131.743 244.068 131.869 244.068 132.034V132.171C244.068 132.345 244.129 132.477 244.251 132.568C244.376 132.655 244.548 132.698 244.765 132.698ZM247.283 133.057V129.696H247.765V130.087H247.791C247.843 129.957 247.917 129.846 248.012 129.755C248.108 129.664 248.249 129.618 248.435 129.618C248.631 129.618 248.776 129.668 248.872 129.768C248.967 129.864 249.026 129.989 249.047 130.146H249.067C249.128 129.994 249.215 129.868 249.327 129.768C249.44 129.668 249.597 129.618 249.796 129.618C250.07 129.618 250.252 129.714 250.343 129.905C250.439 130.096 250.487 130.369 250.487 130.725V133.057H250.005V130.81C250.005 130.523 249.974 130.326 249.914 130.217C249.857 130.104 249.751 130.048 249.594 130.048C249.456 130.048 249.343 130.094 249.256 130.185C249.169 130.272 249.126 130.406 249.126 130.589V133.057H248.644V130.81C248.644 130.523 248.613 130.326 248.553 130.217C248.496 130.104 248.392 130.048 248.24 130.048C248.101 130.048 247.986 130.094 247.895 130.185C247.808 130.272 247.765 130.406 247.765 130.589V133.057H247.283ZM252.783 133.135C252.54 133.135 252.321 133.094 252.125 133.011C251.934 132.929 251.769 132.811 251.63 132.659C251.496 132.503 251.391 132.319 251.318 132.106C251.244 131.889 251.207 131.648 251.207 131.383C251.207 131.114 251.244 130.871 251.318 130.654C251.396 130.437 251.502 130.252 251.637 130.1C251.771 129.944 251.932 129.824 252.119 129.742C252.31 129.659 252.52 129.618 252.75 129.618C252.976 129.618 253.18 129.659 253.362 129.742C253.549 129.824 253.708 129.939 253.838 130.087C253.968 130.23 254.068 130.402 254.137 130.602C254.207 130.801 254.242 131.021 254.242 131.259V131.507H251.754V131.663C251.754 131.811 251.778 131.947 251.826 132.073C251.873 132.199 251.941 132.308 252.027 132.399C252.119 132.49 252.227 132.562 252.353 132.614C252.483 132.662 252.627 132.685 252.783 132.685C253.009 132.685 253.204 132.633 253.369 132.529C253.534 132.425 253.66 132.282 253.747 132.099L254.131 132.36C254.031 132.586 253.864 132.772 253.629 132.92C253.399 133.063 253.117 133.135 252.783 133.135ZM252.75 130.048C252.607 130.048 252.475 130.074 252.353 130.126C252.232 130.178 252.125 130.25 252.034 130.341C251.947 130.432 251.878 130.541 251.826 130.667C251.778 130.788 251.754 130.923 251.754 131.07V131.116H253.682V131.044C253.682 130.897 253.658 130.762 253.61 130.641C253.567 130.519 253.504 130.415 253.421 130.328C253.343 130.237 253.245 130.167 253.128 130.12C253.015 130.072 252.889 130.048 252.75 130.048ZM256.564 133.115C256.386 133.115 256.26 133.078 256.186 133.005C256.117 132.931 256.082 132.837 256.082 132.725V132.607C256.082 132.494 256.117 132.401 256.186 132.327C256.26 132.253 256.386 132.217 256.564 132.217C256.742 132.217 256.866 132.253 256.935 132.327C257.009 132.401 257.046 132.494 257.046 132.607V132.725C257.046 132.837 257.009 132.931 256.935 133.005C256.866 133.078 256.742 133.115 256.564 133.115ZM260.911 133.057V132.164H258.671V131.683L260.638 128.511H261.432V131.715H262.11V132.164H261.432V133.057H260.911ZM259.16 131.715H260.911V128.934H260.885L259.16 131.715Z" fill="#667085"/>
</g>
</g>
</g>
<defs>
<filter id="filter0_d_2834_3578" x="-5" y="-69" width="317.691" height="299" filterUnits="userSpaceOnUse" color-interpolation-filters="sRGB">
<feFlood flood-opacity="0" result="BackgroundImageFix"/>
<feColorMatrix in="SourceAlpha" type="matrix" values="0 0 0 0 0 0 0 0 0 0 0 0 0 0 0 0 0 0 127 0" result="hardAlpha"/>
<feOffset/>
<feGaussianBlur stdDeviation="12"/>
<feComposite in2="hardAlpha" operator="out"/>
<feColorMatrix type="matrix" values="0 0 0 0 0 0 0 0 0 0 0 0 0 0 0 0 0 0 0.06 0"/>
<feBlend mode="normal" in2="BackgroundImageFix" result="effect1_dropShadow_2834_3578"/>
<feBlend mode="normal" in="SourceGraphic" in2="effect1_dropShadow_2834_3578" result="shape"/>
</filter>
<filter id="filter1_d_2834_3578" x="90.4319" y="18.4319" width="123.732" height="123.732" filterUnits="userSpaceOnUse" color-interpolation-filters="sRGB">
<feFlood flood-opacity="0" result="BackgroundImageFix"/>
<feColorMatrix in="SourceAlpha" type="matrix" values="0 0 0 0 0 0 0 0 0 0 0 0 0 0 0 0 0 0 127 0" result="hardAlpha"/>
<feOffset/>
<feGaussianBlur stdDeviation="11.784"/>
<feComposite in2="hardAlpha" operator="out"/>
<feColorMatrix type="matrix" values="0 0 0 0 0 0 0 0 0 0 0 0 0 0 0 0 0 0 0.1 0"/>
<feBlend mode="normal" in2="BackgroundImageFix" result="effect1_dropShadow_2834_3578"/>
<feBlend mode="normal" in="SourceGraphic" in2="effect1_dropShadow_2834_3578" result="shape"/>
</filter>
<radialGradient id="paint0_radial_2834_3578" cx="0" cy="0" r="1" gradientUnits="userSpaceOnUse" gradientTransform="translate(152 79.5812) rotate(90) scale(80.4188 393.143)">
<stop offset="0.106626" stop-color="#D9D9D9"/>
<stop offset="1" stop-color="#D9D9D9" stop-opacity="0"/>
</radialGradient>
<clipPath id="clip0_2834_3578">
<rect width="304" height="160" fill="white"/>
</clipPath>
</defs>
</svg>
