<svg width="177" height="120" viewBox="0 0 177 120" fill="none" xmlns="http://www.w3.org/2000/svg">
<path d="M169.607 119.473H14.8206C12.8704 119.434 11.002 118.682 9.5693 117.359C8.13658 116.035 7.23906 114.232 7.04677 112.291L0.32844 7.49865C0.235284 6.58334 0.33684 5.65867 0.626439 4.7854C0.916039 3.91213 1.38713 3.11001 2.00876 2.43175C2.63038 1.75348 3.38848 1.2144 4.23326 0.849945C5.07803 0.485485 5.99035 0.303888 6.91029 0.317076H161.689C163.64 0.355089 165.509 1.10695 166.943 2.43039C168.377 3.75382 169.276 5.55699 169.47 7.49865L176.188 112.276C176.283 113.192 176.182 114.118 175.893 114.993C175.604 115.867 175.133 116.671 174.511 117.35C173.89 118.03 173.131 118.571 172.286 118.936C171.441 119.302 170.528 119.485 169.607 119.473Z" fill="white"/>
<path d="M168.607 119.77H13.821C11.7948 119.737 9.85168 118.959 8.36251 117.585C6.87334 116.211 5.9424 114.336 5.74739 112.319L0.0290576 7.53404C-0.0589826 6.57798 0.0535676 5.61406 0.359502 4.70401C0.665437 3.79395 1.15802 2.95779 1.80571 2.24906C2.45013 1.53564 3.23806 0.966489 4.11785 0.578917C4.99764 0.191345 5.94941 -0.00589413 6.91077 0.000134126H161.689C163.724 0.0324282 165.675 0.815844 167.166 2.1997C168.658 3.58356 169.586 5.47013 169.77 7.49655L175.481 112.274C175.578 113.23 175.471 114.195 175.168 115.106C174.865 116.017 174.373 116.854 173.724 117.562C173.075 118.27 172.283 118.833 171.401 119.213C170.52 119.594 169.567 119.784 168.607 119.77ZM6.91077 0.62983C6.03083 0.615539 5.15788 0.788076 4.34954 1.13605C3.54121 1.48402 2.81589 1.9995 2.22147 2.64847C1.62706 3.29744 1.17707 4.06513 0.90123 4.90083C0.62539 5.73653 0.529973 6.62125 0.621275 7.49655L6.33961 112.266C6.52504 114.136 7.39118 115.873 8.77333 117.146C10.1555 118.419 11.9572 119.139 13.836 119.171H168.607C169.485 119.184 170.356 119.011 171.162 118.663C171.968 118.316 172.692 117.801 173.285 117.154C173.879 116.507 174.328 115.742 174.605 114.908C174.881 114.075 174.978 113.192 174.889 112.319L169.171 7.53404C168.987 5.66355 168.121 3.92611 166.739 2.65283C165.356 1.37956 163.554 0.659474 161.674 0.62983H6.91077Z" fill="#D0D5DD"/>
<path d="M161.689 0.330727H6.91074C5.99219 0.317771 5.08127 0.499013 4.23763 0.862577C3.394 1.22614 2.63668 1.76382 2.0153 2.44041C1.39391 3.117 0.922467 3.91723 0.631846 4.78869C0.341225 5.66015 0.237983 6.58317 0.328882 7.4973H169.471C169.273 5.55834 168.373 3.75878 166.939 2.43843C165.505 1.11808 163.638 0.368323 161.689 0.330727Z" fill="#D0D5DD"/>
<path d="M10.531 3.92097C10.5523 4.11853 10.5313 4.31835 10.4695 4.50719C10.4077 4.69603 10.3064 4.86956 10.1724 5.0163C10.0385 5.16303 9.87483 5.27961 9.69238 5.3583C9.50992 5.43699 9.31283 5.476 9.11416 5.47273C8.69303 5.46385 8.28971 5.3011 7.98035 5.01522C7.67099 4.72934 7.47699 4.34009 7.43496 3.92097C7.4149 3.72365 7.43672 3.52433 7.49899 3.33602C7.56125 3.14771 7.66256 2.97467 7.79629 2.8282C7.93002 2.68174 8.09317 2.56514 8.27505 2.48605C8.45693 2.40696 8.65346 2.36715 8.85178 2.36922C9.2739 2.37483 9.67901 2.53646 9.98905 2.82298C10.2991 3.10949 10.4921 3.5006 10.531 3.92097Z" fill="white"/>
<path d="M16.8291 3.92097C16.8504 4.11853 16.8294 4.31835 16.7676 4.50719C16.7058 4.69603 16.6046 4.86956 16.4706 5.0163C16.3366 5.16303 16.173 5.27961 15.9905 5.3583C15.8081 5.43699 15.611 5.476 15.4123 5.47273C14.9964 5.45669 14.6004 5.29075 14.2972 5.00555C13.9941 4.72034 13.8044 4.33512 13.7631 3.92097C13.743 3.72365 13.7648 3.52433 13.8271 3.33602C13.8894 3.14771 13.9907 2.97467 14.1244 2.8282C14.2581 2.68174 14.4213 2.56514 14.6032 2.48605C14.7851 2.40696 14.9816 2.36715 15.1799 2.36922C15.5968 2.3821 15.9946 2.54697 16.2984 2.83279C16.6021 3.11861 16.7909 3.50563 16.8291 3.92097Z" fill="white"/>
<path d="M23.1247 3.92097C23.146 4.11853 23.125 4.31835 23.0632 4.50719C23.0014 4.69603 22.9002 4.86956 22.7662 5.0163C22.6322 5.16303 22.4686 5.27961 22.2861 5.3583C22.1037 5.43699 21.9066 5.476 21.7079 5.47273C21.2868 5.46385 20.8835 5.3011 20.5741 5.01522C20.2647 4.72934 20.0707 4.34009 20.0287 3.92097C20.0087 3.72365 20.0305 3.52433 20.0927 3.33602C20.155 3.14771 20.2563 2.97467 20.39 2.8282C20.5238 2.68174 20.6869 2.56514 20.8688 2.48605C21.0507 2.40696 21.2472 2.36715 21.4455 2.36922C21.8676 2.37483 22.2728 2.53646 22.5828 2.82298C22.8928 3.10949 23.0859 3.5006 23.1247 3.92097Z" fill="white"/>
<path opacity="0.3" d="M159.544 111H23.8705C22.2545 110.967 20.7057 110.296 19.5176 109.113C18.3295 107.93 17.5847 106.318 17.4243 104.583L14.0485 22.4178C13.9723 21.5984 14.0577 20.7708 14.2991 19.9895C14.5405 19.2082 14.9324 18.4909 15.449 17.8848C15.9656 17.2787 16.5953 16.7974 17.2966 16.4727C17.9979 16.148 18.7549 15.9872 19.518 16.0008H155.215C156.831 16.0335 158.38 16.7048 159.568 17.8875C160.756 19.0702 161.501 20.6821 161.662 22.4178L164.998 104.625C165.068 105.439 164.979 106.261 164.736 107.036C164.493 107.811 164.101 108.522 163.587 109.123C163.073 109.724 162.447 110.202 161.751 110.525C161.054 110.849 160.303 111.01 159.544 111Z" fill="#D0D5DD"/>
<path d="M153.68 25.3606L153.83 29.4005C153.86 30.1965 153.456 30.8676 152.949 30.8676H148.245C147.778 30.8676 147.39 30.2953 147.364 29.5617L147.213 25.5218C147.183 24.7258 147.587 24.0547 148.094 24.0547H152.798C153.265 24.0547 153.653 24.627 153.68 25.3606Z" fill="#D0D5DD"/>
<path d="M153.599 53.6664H148.896C148.428 53.6664 148.041 53.0941 148.014 52.3606L147.863 48.3207C147.834 47.5247 148.238 46.8535 148.745 46.8535H153.449C153.916 46.8535 154.304 47.4258 154.33 48.1594L154.481 52.1993C154.511 52.9953 154.106 53.6664 153.599 53.6664Z" fill="#D0D5DD"/>
<path d="M154.086 76.9399H149.699C149.147 76.9399 148.692 76.2661 148.66 75.4025L148.528 71.8568C148.493 70.9178 148.968 70.127 149.566 70.127H153.954C154.505 70.127 154.961 70.8007 154.993 71.6643L155.125 75.21C155.16 76.1491 154.684 76.9399 154.086 76.9399Z" fill="#D0D5DD"/>
<path d="M154.986 101.17H150.282C149.815 101.17 149.427 100.598 149.401 99.8645L149.25 95.8246C149.22 95.0286 149.625 94.3574 150.132 94.3574H154.835C155.303 94.3574 155.69 94.9297 155.717 95.6633L155.868 99.7032C155.897 100.499 155.493 101.17 154.986 101.17Z" fill="#D0D5DD"/>
<path d="M131.179 30.88H118.146C117.681 30.88 117.296 30.3129 117.265 29.5845L117.094 25.5681C117.059 24.7668 117.465 24.0879 117.976 24.0879H131.008C131.474 24.0879 131.858 24.655 131.89 25.3834L132.06 29.3998C132.095 30.2011 131.689 30.88 131.179 30.88Z" fill="#D0D5DD"/>
<path d="M131.986 53.6534H114.446C113.981 53.6534 113.596 53.0864 113.565 52.358L113.394 48.3415C113.359 47.5403 113.765 46.8613 114.276 46.8613H131.815C132.281 46.8613 132.665 47.4284 132.696 48.1568L132.867 52.1733C132.902 52.9745 132.496 53.6534 131.986 53.6534Z" fill="#D0D5DD"/>
<path d="M132.738 76.882H119.359C118.893 76.882 118.509 76.3149 118.477 75.5865L118.306 71.57C118.272 70.7688 118.678 70.0898 119.188 70.0898H132.567C133.032 70.0898 133.417 70.6569 133.448 71.3853L133.619 75.4018C133.654 76.203 133.248 76.882 132.738 76.882Z" fill="#D0D5DD"/>
<path d="M133.548 101.29H117.048C116.582 101.29 116.198 100.723 116.166 99.9947L115.996 95.9782C115.961 95.177 116.367 94.498 116.877 94.498H133.377C133.843 94.498 134.227 95.0651 134.259 95.7935L134.43 99.81C134.464 100.611 134.058 101.29 133.548 101.29Z" fill="#D0D5DD"/>
<path d="M68.8782 53.6534H51.3388C50.8733 53.6534 50.4889 53.0864 50.4574 52.358L50.2867 48.3415C50.2519 47.5403 50.6579 46.8613 51.1682 46.8613H68.7075C69.1731 46.8613 69.5575 47.4284 69.589 48.1568L69.7596 52.1733C69.7944 52.9745 69.3885 53.6534 68.8782 53.6534Z" fill="#D0D5DD"/>
<path d="M69.6145 76.3976H52.0752C51.6096 76.3976 51.2252 75.8305 51.1937 75.1021L51.0231 71.0856C50.9883 70.2844 51.3942 69.6055 51.9045 69.6055H69.4439C69.9094 69.6055 70.2938 70.1726 70.3253 70.9009L70.496 74.9174C70.5308 75.7186 70.1248 76.3976 69.6145 76.3976Z" fill="#D0D5DD"/>
<path d="M68.1282 30.88H55.0955C54.6299 30.88 54.2455 30.3129 54.214 29.5845L54.0434 25.5681C54.0086 24.7668 54.4145 24.0879 54.9248 24.0879H67.9575C68.4231 24.0879 68.8075 24.655 68.839 25.3834L69.0096 29.3998C69.0444 30.2011 68.6385 30.88 68.1282 30.88Z" fill="#D0D5DD"/>
<path d="M70.6399 99.0929H57.6072C57.1416 99.0929 56.7572 98.5258 56.7257 97.7974L56.5551 93.7809C56.5203 92.9797 56.9262 92.3008 57.4365 92.3008H70.4693C70.9348 92.3008 71.3192 92.8679 71.3507 93.5963L71.5214 97.6127C71.5561 98.4139 71.1502 99.0929 70.6399 99.0929Z" fill="#D0D5DD"/>
<path d="M101.148 53.6886H84.3009C83.8354 53.6886 83.451 53.1215 83.4195 52.3931L83.2488 48.3767C83.214 47.5754 83.62 46.8965 84.1303 46.8965H100.977C101.443 46.8965 101.827 47.4636 101.859 48.192L102.029 52.2084C102.064 53.0096 101.658 53.6886 101.148 53.6886Z" fill="#D0D5DD"/>
<path opacity="0.6" d="M101.855 76.9171H88.822C88.3564 76.9171 87.9721 76.35 87.9406 75.6216L87.7699 71.6052C87.7351 70.804 88.1411 70.125 88.6514 70.125H101.684C102.15 70.125 102.534 70.6921 102.566 71.4205L102.736 75.437C102.771 76.2382 102.365 76.9171 101.855 76.9171Z" fill="#98A2B3"/>
<path opacity="0.6" d="M100.171 30.88H87.1384C86.6729 30.88 86.2885 30.3129 86.257 29.5845L86.0863 25.5681C86.0515 24.7668 86.4575 24.0879 86.9678 24.0879H100.001C100.466 24.0879 100.85 24.655 100.882 25.3834L101.053 29.3998C101.087 30.2011 100.681 30.88 100.171 30.88Z" fill="#98A2B3"/>
<path d="M102.62 101.257H86.4678C86.0022 101.257 85.6179 100.69 85.5864 99.9615L85.4157 95.945C85.3809 95.1438 85.7868 94.4648 86.2972 94.4648H102.45C102.915 94.4648 103.3 95.0319 103.331 95.7603L103.502 99.7768C103.537 100.578 103.131 101.257 102.62 101.257Z" fill="#D0D5DD"/>
<path d="M39.6341 99.0675H24.522C24.0564 99.0675 23.672 98.5004 23.6405 97.772L23.4699 93.7556C23.4351 92.9543 23.841 92.2754 24.3513 92.2754H39.4634C39.929 92.2754 40.3134 92.8425 40.3448 93.5709L40.5155 97.5873C40.5503 98.3886 40.1444 99.0675 39.6341 99.0675Z" fill="#D0D5DD"/>
<path d="M38.7083 76.382H25.6755C25.21 76.382 24.8256 75.8149 24.7941 75.0865L24.6235 71.07C24.5887 70.2688 24.9946 69.5898 25.5049 69.5898H38.5376C39.0032 69.5898 39.3876 70.1569 39.4191 70.8853L39.5897 74.9018C39.6245 75.703 39.2186 76.382 38.7083 76.382Z" fill="#D0D5DD"/>
<path d="M37.2356 30.8312H21.083C20.6175 30.8312 20.2331 30.2641 20.2016 29.5357L20.0309 25.5192C19.9961 24.718 20.4021 24.0391 20.9124 24.0391H37.065C37.5305 24.0391 37.9149 24.6062 37.9464 25.3345L38.1171 29.351C38.1519 30.1522 37.7459 30.8312 37.2356 30.8312Z" fill="#D0D5DD"/>
<path d="M109.463 110.324L109.485 110.842L109.485 110.868L77.7471 111.082L77.7469 111.056L77.7268 110.539L109.465 110.324L109.463 110.324ZM141.173 110.11L141.193 110.627L141.193 110.653L110.524 110.861L110.523 110.835L110.503 110.317L141.174 110.11L141.173 110.11ZM109.463 110.324L109.485 110.842L109.485 110.868L77.7471 111.082L77.7469 111.056L77.7268 110.539L109.465 110.324L109.463 110.324ZM141.173 110.11L141.193 110.627L141.193 110.653L110.524 110.861L110.523 110.835L110.503 110.317L141.174 110.11L141.173 110.11ZM14.6435 39.6157L14.6654 40.1592L15.5151 62.656L15.537 63.1996L16.4289 86.7834L16.4491 87.327L17.0197 102.362C17.0583 103.902 17.776 105.908 18.8958 107.586C20.1914 109.526 21.7817 110.709 22.7737 110.882C22.86 110.902 22.9428 110.907 23.024 110.906L158.191 109.992C158.61 109.989 158.962 109.976 159.263 109.959C159.926 109.915 160.354 109.832 160.769 109.704C163.454 108.908 164.987 103.822 164.932 101.325L164.362 86.3292L164.345 85.7856L163.45 62.2018L163.43 61.6582L162.577 39.1615L162.557 38.6179L162.028 24.6465C161.965 21.8868 159.785 17.0733 157.225 16.3596C156.617 16.1842 155.979 16.1001 155.329 16.1045L20.1589 17.0187C16.7094 17.042 14.0325 22.276 14.1152 25.6833L14.6435 39.6183L14.6435 39.6157ZM141.174 110.11L141.194 110.627L141.194 110.653L110.525 110.861L110.525 110.835L110.505 110.317L141.176 110.11L141.174 110.11ZM109.465 110.324L109.486 110.842L109.487 110.868L77.7487 111.082L77.7486 111.056L77.7285 110.539L109.466 110.324L109.465 110.324ZM18.2218 16.9953C18.8194 16.6635 19.456 16.4745 20.122 16.47L155.291 15.5558C155.96 15.5513 156.619 15.6405 157.251 15.8209C157.445 15.8742 157.636 15.9536 157.828 16.0511C160.302 17.3039 162.31 21.9391 162.376 24.678L162.904 38.613L162.926 39.1565L163.776 61.6533L163.796 62.1968L164.688 85.7807L164.708 86.3243L165.279 101.359C165.342 104.124 163.833 108.583 161.546 109.943C161.328 110.075 161.1 110.181 160.869 110.247C160.444 110.37 160 110.453 159.321 110.502C159.013 110.52 158.656 110.533 158.23 110.536L23.0592 111.45C22.9763 111.45 22.8885 111.446 22.7956 111.425C22.4307 111.368 21.997 111.186 21.5294 110.89C20.6143 110.319 19.5703 109.314 18.663 107.954C17.4713 106.17 16.7077 104.008 16.6649 102.328L16.0995 87.3319L16.0793 86.7884L15.1842 63.2045L15.1672 62.661L14.3142 40.1642L14.2939 39.6207L13.7654 25.6545L13.7653 25.6493C13.6974 22.7049 15.5609 18.4727 18.2219 17.0005L18.2218 16.9953Z" fill="#D0D5DD"/>
<path d="M137.6 16L137.617 16.5125V16.5437L138.394 39.1052L138.415 39.6514L139.191 62.1505L139.209 62.6968L140.024 86.2858L140.041 86.832L140.818 110.999H141.164L140.387 86.832L140.37 86.2858L139.555 62.6968L139.539 62.1505L138.762 39.6514L138.74 39.1052L137.963 16.5437V16.5125L137.946 16H137.6Z" fill="#D0D5DD"/>
<path d="M106.583 16L106.599 16.5125V16.5437L107.376 39.1052L107.398 39.6514L108.175 62.1505L108.191 62.6968L109.007 86.2858L109.023 86.832L109.8 110.999H110.146L109.371 86.832L109.353 86.2858L108.538 62.6968L108.521 62.1505L107.744 39.6514L107.723 39.1052L106.947 16.5437V16.5125L106.929 16H106.583Z" fill="#D0D5DD"/>
<path d="M75.5918 16.5254L75.6083 17.0691L78.7497 111.001H79.0977L75.9563 17.0691L75.9381 16.5254H75.5918Z" fill="#D0D5DD"/>
<path d="M44.5918 16.5137L44.61 17.0574L47.7514 111H48.0977L44.9563 17.0574L44.9397 16.5137H44.5918Z" fill="#D0D5DD"/>
<path d="M14.456 39.1074L14.4726 39.6511H163.09L163.073 39.1074H14.456Z" fill="#D0D5DD"/>
<path d="M15.1742 62.1523L15.1891 62.696H163.805L163.788 62.1523H15.1742Z" fill="#D0D5DD"/>
<path d="M15.9203 86.2891L15.9385 86.8327H164.551L164.534 86.2891H15.9203Z" fill="#D0D5DD"/>
</svg>
