<svg width="187" height="120" viewBox="0 0 187 120" fill="none" xmlns="http://www.w3.org/2000/svg">
<path d="M172.589 119.473H17.803C15.8528 119.434 13.9844 118.682 12.5517 117.359C11.119 116.035 10.2215 114.232 10.0292 112.291L1.31086 7.49865C1.21771 6.58334 1.31926 5.65867 1.60886 4.7854C1.89846 3.91213 2.36955 3.11001 2.99118 2.43175C3.61281 1.75348 4.37091 1.2144 5.21568 0.849945C6.06045 0.485485 6.97277 0.303888 7.89271 0.317076H162.671C164.622 0.355089 166.492 1.10695 167.925 2.43039C169.359 3.75382 170.258 5.55699 170.453 7.49865L179.171 112.276C179.265 113.192 179.164 114.118 178.875 114.993C178.586 115.867 178.115 116.671 177.494 117.35C176.872 118.03 176.114 118.571 175.268 118.936C174.423 119.302 173.51 119.485 172.589 119.473Z" fill="white"/>
<path d="M172.589 119.77H17.8035C15.7772 119.737 13.8341 118.959 12.3449 117.585C10.8558 116.211 9.92482 114.336 9.72981 112.319L1.01148 7.53404C0.923439 6.57798 1.03599 5.61406 1.34192 4.70401C1.64786 3.79395 2.14044 2.95779 2.78813 2.24906C3.43255 1.53564 4.22048 0.966489 5.10027 0.578917C5.98006 0.191345 6.93184 -0.00589413 7.89319 0.000134126H162.672C164.706 0.0324282 166.657 0.815844 168.149 2.1997C169.641 3.58356 170.568 5.47013 170.753 7.49655L179.464 112.274C179.56 113.23 179.453 114.195 179.15 115.106C178.847 116.017 178.355 116.854 177.706 117.562C177.057 118.27 176.266 118.833 175.384 119.213C174.502 119.594 173.55 119.784 172.589 119.77ZM7.89319 0.62983C7.01326 0.615539 6.1403 0.788076 5.33196 1.13605C4.52363 1.48402 3.79831 1.9995 3.20389 2.64847C2.60948 3.29744 2.15949 4.06513 1.88365 4.90083C1.60781 5.73653 1.5124 6.62125 1.6037 7.49655L10.322 112.266C10.5075 114.136 11.3736 115.873 12.7558 117.146C14.1379 118.419 15.9397 119.139 17.8184 119.171H172.589C173.467 119.184 174.338 119.011 175.144 118.663C175.951 118.316 176.674 117.801 177.268 117.154C177.861 116.507 178.311 115.742 178.587 114.908C178.864 114.075 178.96 113.192 178.871 112.319L170.153 7.53404C169.969 5.66355 169.104 3.92611 167.721 2.65283C166.339 1.37956 164.536 0.659474 162.657 0.62983H7.89319Z" fill="#D0D5DD"/>
<path d="M162.672 0.330727H7.89316C6.97461 0.317771 6.06369 0.499013 5.22005 0.862577C4.37642 1.22614 3.61911 1.76382 2.99772 2.44041C2.37633 3.117 1.90489 3.91723 1.61427 4.78869C1.32365 5.66015 1.22041 6.58317 1.3113 7.4973H170.453C170.255 5.55834 169.355 3.75878 167.921 2.43843C166.488 1.11808 164.62 0.368323 162.672 0.330727Z" fill="#D0D5DD"/>
<path d="M11.5134 3.92097C11.5347 4.11853 11.5137 4.31835 11.4519 4.50719C11.3901 4.69603 11.2888 4.86956 11.1549 5.0163C11.0209 5.16303 10.8573 5.27961 10.6748 5.3583C10.4923 5.43699 10.2953 5.476 10.0966 5.47273C9.67545 5.46385 9.27213 5.3011 8.96277 5.01522C8.65341 4.72934 8.45941 4.34009 8.41738 3.92097C8.39732 3.72365 8.41914 3.52433 8.48141 3.33602C8.54367 3.14771 8.64498 2.97467 8.77871 2.8282C8.91245 2.68174 9.07559 2.56514 9.25747 2.48605C9.43935 2.40696 9.63588 2.36715 9.8342 2.36922C10.2563 2.37483 10.6614 2.53646 10.9715 2.82298C11.2815 3.10949 11.4746 3.5006 11.5134 3.92097Z" fill="white"/>
<path d="M17.8115 3.92097C17.8328 4.11853 17.8119 4.31835 17.75 4.50719C17.6882 4.69603 17.587 4.86956 17.453 5.0163C17.319 5.16303 17.1554 5.27961 16.9729 5.3583C16.7905 5.43699 16.5934 5.476 16.3947 5.47273C15.9788 5.45669 15.5828 5.29075 15.2797 5.00555C14.9765 4.72034 14.7868 4.33512 14.7455 3.92097C14.7254 3.72365 14.7473 3.52433 14.8095 3.33602C14.8718 3.14771 14.9731 2.97467 15.1068 2.8282C15.2406 2.68174 15.4037 2.56514 15.5856 2.48605C15.7675 2.40696 15.964 2.36715 16.1623 2.36922C16.5792 2.3821 16.977 2.54697 17.2808 2.83279C17.5846 3.11861 17.7733 3.50563 17.8115 3.92097Z" fill="white"/>
<path d="M24.1071 3.92097C24.1284 4.11853 24.1075 4.31835 24.0457 4.50719C23.9838 4.69603 23.8826 4.86956 23.7486 5.0163C23.6146 5.16303 23.451 5.27961 23.2685 5.3583C23.0861 5.43699 22.889 5.476 22.6903 5.47273C22.2692 5.46385 21.8659 5.3011 21.5565 5.01522C21.2472 4.72934 21.0532 4.34009 21.0111 3.92097C20.9911 3.72365 21.0129 3.52433 21.0752 3.33602C21.1374 3.14771 21.2387 2.97467 21.3725 2.8282C21.5062 2.68174 21.6693 2.56514 21.8512 2.48605C22.0331 2.40696 22.2296 2.36715 22.428 2.36922C22.8501 2.37483 23.2552 2.53646 23.5652 2.82298C23.8753 3.10949 24.0683 3.5006 24.1071 3.92097Z" fill="white"/>
<path d="M159.156 105.737H28.9877C27.4372 105.708 25.9513 105.111 24.8115 104.059C23.6716 103.008 22.957 101.575 22.8032 100.032L16.6861 26.9867C16.613 26.2582 16.6949 25.5225 16.9265 24.828C17.1581 24.1334 17.5341 23.4957 18.0297 22.9569C18.5254 22.418 19.1295 21.9902 19.8023 21.7015C20.4752 21.4128 21.2015 21.2698 21.9336 21.282H152.124C153.674 21.311 155.16 21.9078 156.3 22.9592C157.44 24.0106 158.155 25.4437 158.308 26.9867L164.388 100.069C164.455 100.794 164.37 101.524 164.136 102.213C163.903 102.902 163.528 103.534 163.034 104.069C162.541 104.603 161.94 105.028 161.272 105.315C160.604 105.602 159.883 105.746 159.156 105.737Z" fill="#F0F0F0"/>
<path opacity="0.1" d="M118.884 34.0404L78.5538 82.6022C77.2862 84.1271 76.433 85.9529 76.0766 87.9036C75.7201 89.8543 75.8725 91.8638 76.519 93.7385C77.1655 95.6131 78.2842 97.2894 79.7673 98.6057C81.2503 99.922 83.0476 100.834 84.9857 101.253L150.429 115.399C152.476 115.843 154.605 115.721 156.588 115.047C158.571 114.373 160.333 113.172 161.686 111.572C163.038 109.973 163.929 108.036 164.264 105.968C164.598 103.9 164.364 101.781 163.586 99.8364L138.495 37.1214C137.754 35.2605 136.541 33.6246 134.976 32.3748C133.41 31.125 131.546 30.3042 129.568 29.9933C127.589 29.6824 125.563 29.8921 123.69 30.6017C121.817 31.3113 120.161 32.4964 118.884 34.0404Z" fill="#263238"/>
<path opacity="0.1" d="M29.1088 40.8484L15.0605 78.7128C14.6397 79.8688 14.5186 81.1125 14.7082 82.328C14.8978 83.5435 15.3921 84.6912 16.145 85.6641C16.8979 86.637 17.8849 87.4035 19.0139 87.892C20.1429 88.3806 21.3773 88.5753 22.6019 88.4581L63.6298 84.4325C64.9353 84.305 66.1823 83.8274 67.239 83.0501C68.2957 82.2728 69.123 81.2247 69.6335 80.0163C70.144 78.8079 70.3189 77.4841 70.1396 76.1846C69.9603 74.8852 69.4335 73.6582 68.6149 72.6332L41.6278 38.8243C40.8215 37.818 39.7627 37.0437 38.5593 36.5803C37.356 36.117 36.0512 35.9814 34.7783 36.1872C33.5053 36.393 32.3098 36.9329 31.3138 37.7518C30.3177 38.5707 29.5568 39.6392 29.1088 40.8484Z" fill="#263238"/>
<path d="M132.797 21.8151L95.0904 76.539C93.9127 78.2483 93.1934 80.2312 93.0013 82.298C92.8092 84.3649 93.1507 86.4465 93.9932 88.3436C94.8357 90.2406 96.1509 91.8898 97.8131 93.1331C99.4752 94.3765 101.429 95.1725 103.486 95.4449L172.798 104.673C174.978 104.963 177.196 104.656 179.214 103.783C181.233 102.91 182.976 101.504 184.257 99.7172C185.539 97.93 186.31 95.828 186.489 93.6362C186.668 91.4443 186.247 89.2451 185.272 87.2739L153.667 23.2994C152.729 21.4042 151.312 19.7871 149.556 18.6087C147.8 17.4303 145.767 16.7314 143.657 16.5813C141.548 16.4313 139.436 16.8354 137.531 17.7535C135.626 18.6716 133.994 20.0717 132.797 21.8151Z" fill="#D0D5DD"/>
<path d="M105.13 90.5569C103.879 90.3866 102.688 89.9095 101.665 89.1679C100.643 88.4263 99.8191 87.4433 99.2682 86.3064C98.7002 85.2317 98.4331 84.0235 98.4951 82.8096C98.5571 81.5956 98.946 80.4209 99.6205 79.4097L137.425 24.5209C138.108 23.5419 139.054 22.775 140.153 22.3084C141.252 21.8417 142.46 21.694 143.64 21.8822C144.892 22.0511 146.083 22.5278 147.106 23.2695C148.129 24.0113 148.952 24.995 149.502 26.1327L181.167 90.2645C181.735 91.3392 182.002 92.5474 181.94 93.7614C181.878 94.9753 181.489 96.15 180.814 97.1612C180.132 98.1423 179.187 98.9111 178.088 99.3792C176.989 99.8474 175.78 99.9958 174.6 99.8075L105.13 90.5569Z" fill="white"/>
<path d="M140.422 41.285L144.837 41.8697C146.218 42.0645 147.478 42.7605 148.378 43.8251C149.278 44.8897 149.755 46.2484 149.717 47.642L149.417 53.3992C149.41 53.608 149.388 53.816 149.35 54.0214L146.209 71.3756C145.984 72.5717 145.301 73.6327 144.306 74.3328C143.31 75.0329 142.081 75.3167 140.879 75.1239C139.604 74.9426 138.427 74.3349 137.541 73.3998C136.655 72.4647 136.111 71.2572 135.999 69.9738L134.732 52.0424C134.717 51.8352 134.717 51.6273 134.732 51.4202L135.024 45.6554C135.056 45.0005 135.225 44.3597 135.522 43.7749C135.818 43.1901 136.235 42.6745 136.745 42.2619C137.254 41.8493 137.845 41.549 138.479 41.3807C139.112 41.2123 139.775 41.1797 140.422 41.285ZM140.069 79.9366L141.269 80.094C142.504 80.2684 143.632 80.8911 144.438 81.8436C145.244 82.7961 145.672 84.0117 145.639 85.259C145.613 85.8472 145.462 86.4231 145.198 86.949C144.933 87.4749 144.56 87.9389 144.104 88.3106C143.647 88.6822 143.117 88.9531 142.548 89.1055C141.98 89.2579 141.385 89.2882 140.804 89.1946L139.605 89.0297C138.37 88.857 137.242 88.2358 136.436 87.2845C135.63 86.3333 135.202 85.1186 135.234 83.8722C135.259 83.2836 135.409 82.7071 135.673 82.1806C135.937 81.6541 136.31 81.1895 136.767 80.8176C137.224 80.4458 137.755 80.1749 138.324 80.0231C138.893 79.8712 139.488 79.8417 140.069 79.9366Z" fill="#D0D5DD"/>
<path d="M43.6056 30.1797L33.253 69.4384C32.9408 70.6314 32.9365 71.8841 33.2404 73.0791C33.5443 74.2742 34.1466 75.3726 34.9908 76.2715C35.835 77.1704 36.8935 77.8403 38.0671 78.2185C39.2408 78.5968 40.4913 78.671 41.7015 78.4341L81.8598 70.6004C83.1339 70.3462 84.3169 69.7561 85.2863 68.891C86.2556 68.0259 86.976 66.9173 87.3729 65.6802C87.7697 64.443 87.8285 63.1223 87.5433 61.8548C87.258 60.5872 86.639 59.419 85.7504 58.4712L55.9747 27.0237C55.0816 26.0748 53.9507 25.3824 52.6994 25.0186C51.4482 24.6548 50.1223 24.6328 48.8597 24.9549C47.597 25.2771 46.4438 25.9316 45.5198 26.8505C44.5958 27.7693 43.9348 28.9189 43.6056 30.1797Z" fill="#D0D5DD"/>
<path d="M41.6209 75.2725C40.8836 75.406 40.1244 75.3509 39.4141 75.1124C38.7037 74.8738 38.0652 74.4596 37.5579 73.9082C37.0344 73.377 36.6561 72.7203 36.4592 72.001C36.2623 71.2817 36.2534 70.5239 36.4334 69.8001L46.8084 30.4365C46.9883 29.7486 47.3601 29.1262 47.8804 28.6417C48.4008 28.1572 49.0481 27.8307 49.747 27.7003C50.485 27.5684 51.2443 27.625 51.9546 27.8648C52.6648 28.1047 53.3031 28.5199 53.8101 29.0721L83.6908 60.5571C84.215 61.0879 84.5942 61.7443 84.7924 62.4635C84.9906 63.1827 85.001 63.9407 84.8228 64.6651C84.6416 65.3515 84.2693 65.9724 83.7491 66.4555C83.2288 66.9385 82.5821 67.2639 81.8842 67.3938L41.6209 75.2725Z" fill="white"/>
<path d="M51.6962 39.6803L54.2525 39.178C55.0778 39.0449 55.9233 39.2215 56.6263 39.674C57.3293 40.1265 57.8401 40.823 58.0607 41.6294L58.9752 45.0552C59.0099 45.181 59.0374 45.3087 59.0577 45.4376L60.6844 56.2249C60.8112 56.9512 60.646 57.6981 60.2249 58.3032C59.8037 58.9083 59.1606 59.3226 58.4355 59.4559C57.6751 59.5821 56.8945 59.4442 56.2234 59.065C55.5524 58.6858 55.0314 58.0883 54.7472 57.3719L50.5942 47.1168C50.5438 46.9972 50.5013 46.8745 50.4668 46.7494L49.5222 43.3161C49.3994 42.9344 49.3594 42.5309 49.4049 42.1326C49.4505 41.7342 49.5804 41.3502 49.7862 41.0061C49.992 40.662 50.2688 40.3657 50.5981 40.1371C50.9275 39.9085 51.3018 39.7527 51.6962 39.6803ZM58.9302 62.3795L59.6274 62.2445C60.3667 62.1165 61.1272 62.2703 61.7586 62.6755C62.3901 63.0808 62.8467 63.708 63.0383 64.4335C63.1439 64.7713 63.1772 65.1276 63.1359 65.4792C63.0946 65.8307 62.9796 66.1696 62.7986 66.4738C62.6175 66.7779 62.3743 67.0405 62.085 67.2443C61.7956 67.4482 61.4665 67.5888 61.1192 67.6569L60.422 67.7919C59.6837 67.9202 58.9241 67.7675 58.2928 67.3637C57.6615 66.96 57.2043 66.3345 57.0112 65.6104C56.9055 65.2721 56.8722 64.9154 56.9135 64.5633C56.9547 64.2113 57.0696 63.8719 57.2505 63.5672C57.4315 63.2625 57.6746 62.9992 57.964 62.7946C58.2534 62.59 58.5826 62.4485 58.9302 62.3795Z" fill="#D0D5DD"/>
</svg>
