<svg width="175" height="132" viewBox="0 0 175 132" fill="none" xmlns="http://www.w3.org/2000/svg">
<rect y="11.1538" width="141.519" height="116.88" rx="7.5814" transform="rotate(-4.52042 0 11.1538)" fill="#EAECF0"/>
<circle cx="11.8887" cy="20.125" r="3.56235" transform="rotate(-4.52042 11.8887 20.125)" fill="#D0D5DD"/>
<circle cx="24.5703" cy="19.1216" r="3.56235" transform="rotate(-4.52042 24.5703 19.1216)" fill="#D0D5DD"/>
<circle cx="37.2539" cy="18.1196" r="3.56235" transform="rotate(-4.52042 37.2539 18.1196)" fill="#D0D5DD"/>
<rect x="6.68164" y="31.5396" width="131.411" height="90.9768" rx="6.31783" transform="rotate(-4.52042 6.68164 31.5396)" fill="#F9FAFB"/>
<g filter="url(#filter0_b_5004_4452)">
<path fill-rule="evenodd" clip-rule="evenodd" d="M125.49 83.0752C119.421 91.6032 108.26 94.331 99.1065 90.0792C97.9346 89.5229 96.7979 88.8678 95.7105 88.0943C95.151 87.6976 94.6165 87.2809 94.1035 86.8339C93.078 85.9413 92.1464 84.9621 91.3433 83.9234C89.9424 82.1766 88.866 80.254 88.1101 78.2065C85.7036 71.7915 86.4273 64.3281 90.6947 58.3337C94.9717 52.322 101.789 49.2042 108.637 49.3625C110.82 49.4179 112.991 49.8042 115.099 50.5427C116.348 50.9744 117.563 51.536 118.744 52.2119C119.333 52.5486 119.902 52.9185 120.46 53.317C121.549 54.0903 122.553 54.9456 123.449 55.8742C130.468 63.1248 131.548 74.5633 125.49 83.0752Z" fill="white" fill-opacity="0.1"/>
</g>
<path fill-rule="evenodd" clip-rule="evenodd" d="M123.202 81.9827C116.888 90.8577 104.582 92.9304 95.7068 86.6168C86.8432 80.3099 84.7689 68.0023 91.0841 59.1285C97.3909 50.2649 109.697 48.1908 118.561 54.4976C127.434 60.8115 129.509 73.1191 123.202 81.9827ZM121.81 49.9382C110.42 41.8338 94.6246 44.4959 86.5203 55.8859C78.4171 67.2742 81.0723 83.0805 92.4609 91.1851C102.827 98.5583 116.866 97.0146 125.418 88.0849C126.253 87.2117 127.039 86.2583 127.769 85.2344C128.497 84.2092 129.14 83.1548 129.69 82.0797C135.323 71.0714 132.174 57.313 121.81 49.9382Z" fill="#EAECF0"/>
<path fill-rule="evenodd" clip-rule="evenodd" d="M172.314 115.513L171.974 115.991C169.723 119.156 165.29 119.904 162.125 117.651L132.914 96.8672L141.444 84.8799L170.654 105.664C173.819 107.916 174.566 112.348 172.314 115.513Z" fill="#D0D5DD"/>
<path fill-rule="evenodd" clip-rule="evenodd" d="M130.1 81.2243L138.732 87.3661L134.371 93.4927L125.741 87.3506C126.593 86.4596 127.393 85.487 128.139 84.4419C128.883 83.3972 129.539 82.3213 130.1 81.2243Z" fill="#EAECF0"/>
<path fill-rule="evenodd" clip-rule="evenodd" d="M142.07 85.1364L133.362 97.3738L131.544 96.0803L140.251 83.8429L142.07 85.1364Z" fill="#D0D5DD"/>
<path fill-rule="evenodd" clip-rule="evenodd" d="M113.104 52.7304L91.7506 82.7397C90.4913 81.1693 89.5236 79.4407 88.8455 77.5998L107.296 51.6692C109.258 51.7204 111.21 52.0664 113.104 52.7304Z" fill="white" fill-opacity="0.5"/>
<path fill-rule="evenodd" clip-rule="evenodd" d="M122.552 57.4161L99.2008 88.2878C98.0962 87.8008 97.0256 87.2236 96.0027 86.5398C95.4762 86.1877 94.9724 85.8206 94.4921 85.4241L118.127 54.1736C118.683 54.4714 119.219 54.7979 119.744 55.1502C120.767 55.8341 121.711 56.5917 122.552 57.4161Z" fill="white" fill-opacity="0.5"/>
<defs>
<filter id="filter0_b_5004_4452" x="85.2846" y="47.8954" width="45.6203" height="45.6228" filterUnits="userSpaceOnUse" color-interpolation-filters="sRGB">
<feFlood flood-opacity="0" result="BackgroundImageFix"/>
<feGaussianBlur in="BackgroundImageFix" stdDeviation="0.730771"/>
<feComposite in2="SourceAlpha" operator="in" result="effect1_backgroundBlur_5004_4452"/>
<feBlend mode="normal" in="SourceGraphic" in2="effect1_backgroundBlur_5004_4452" result="shape"/>
</filter>
</defs>
</svg>
